<?xml version="1.0" encoding="UTF-8"?>
<svg xmlns="http://www.w3.org/2000/svg" viewBox="0 0 220 60" fill="none" stroke="#111" stroke-width="1.6" stroke-linecap="round" stroke-linejoin="round">
<title>Celtic Row 1 reference paths</title>
<g transform="translate(10,8)">
  <rect width="44" height="44" fill="#f8f8f8" stroke="#ddd"/>
  <path transform="translate(22,22) scale(0.38) translate(-50,-50)" d="M 50.00 38.50L 50.75 38.51L 51.50 38.53L 52.26 38.56L 53.01 38.61L 53.75 38.67L 54.50 38.75L 55.24 38.84L 55.98 38.94L 56.72 39.06L 57.45 39.19L 58.18 39.33L 58.91 39.48L 59.63 39.65L 60.34 39.84L 61.05 40.03L 61.75 40.24L 62.44 40.46L 63.13 40.69L 63.81 40.93L 64.48 41.19L 65.14 41.46L 65.79 41.74L 66.44 42.03L 67.07 42.33L 67.70 42.64L 68.31 42.97L 68.92 43.30L 69.51 43.64L 70.09 44.00L 70.66 44.36L 71.22 44.73L 71.77 45.12L 72.30 45.51L 72.83 45.91L 73.33 46.31L 73.83 46.73L 74.31 47.15L 74.78 47.58L 75.23 48.02L 75.67 48.46L 76.09 48.91L 76.50 49.36L 76.90 49.82L 77.27 50.29L 77.64 50.76L 77.99 51.23L 78.32 51.71L 78.63 52.20L 78.93 52.68L 79.22 53.17L 79.48 53.66L 79.73 54.16L 79.97 54.65L 80.19 55.15L 80.39 55.64L 80.57 56.14L 80.74 56.64L 80.88 57.14L 81.02 57.64L 81.13 58.13L 81.23 58.63L 81.31 59.12L 81.37 59.61L 81.42 60.10L 81.45 60.58L 81.46 61.07L 81.46 61.54L 81.43 62.02L 81.40 62.49L 81.34 62.95L 81.27 63.41L 81.18 63.87L 81.07 64.31L 80.95 64.76L 80.81 65.19L 80.66 65.62L 80.49 66.04L 80.30 66.45L 80.10 66.85L 79.88 67.25L 79.64 67.64L 79.40 68.01L 79.13 68.38L 78.85 68.74L 78.56 69.09L 78.25 69.43L 77.93 69.75L 77.60 70.07L 77.25 70.37L 76.89 70.66L 76.51 70.95L 76.13 71.21L 75.73 71.47L 75.31 71.71L 74.89 71.94L 74.46 72.16L 74.01 72.37L 73.55 72.56L 73.09 72.73L 72.61 72.90L 72.12 73.04L 71.62 73.18L 71.12 73.30L 70.60 73.40L 70.08 73.49L 69.55 73.57L 69.01 73.63L 68.47 73.67L 67.91 73.70L 67.35 73.72L 66.79 73.72L 66.22 73.70L 65.64 73.67L 65.06 73.62L 64.48 73.56L 63.89 73.48L 63.30 73.38L 62.70 73.27L 62.10 73.14L 61.50 73.00L 60.90 72.84L 60.29 72.67L 59.69 72.48L 59.08 72.27L 58.47 72.05L 57.87 71.81L 57.26 71.56L 56.66 71.30L 56.05 71.01L 55.45 70.72L 54.85 70.40L 54.25 70.08L 53.66 69.73L 53.06 69.38L 52.48 69.01L 51.89 68.62L 51.31 68.22L 50.74 67.81L 50.17 67.38L 49.61 66.94L 49.05 66.49L 48.50 66.02L 47.96 65.54L 47.42 65.05L 46.89 64.55L 46.37 64.04L 45.85 63.51L 45.35 62.97L 44.85 62.42L 44.36 61.86L 43.88 61.29L 43.41 60.71L 42.95 60.12L 42.51 59.52L 42.07 58.92L 41.64 58.30L 41.22 57.67L 40.82 57.04L 40.42 56.40L 40.04 55.75L 39.67 55.09L 39.31 54.43L 38.97 53.77L 38.63 53.09L 38.31 52.41L 38.01 51.73L 37.71 51.04L 37.43 50.35L 37.16 49.65L 36.91 48.95L 36.67 48.25L 36.44 47.54L 36.23 46.84L 36.03 46.13L 35.84 45.42L 35.67 44.71L 35.52 44.00L 35.37 43.29L 35.25 42.58L 35.13 41.87L 35.03 41.16L 34.95 40.45L 34.88 39.75L 34.82 39.05L 34.78 38.35L 34.75 37.66L 34.74 36.97L 34.74 36.28L 34.76 35.60L 34.78 34.92L 34.83 34.25L 34.89 33.59L 34.96 32.93L 35.04 32.28L 35.14 31.64L 35.25 31.00L 35.38 30.37L 35.52 29.75L 35.67 29.14L 35.83 28.54L 36.01 27.95L 36.20 27.37L 36.40 26.80L 36.61 26.23L 36.84 25.68L 37.08 25.15L 37.33 24.62L 37.59 24.10L 37.86 23.60L 38.14 23.11L 38.43 22.64L 38.73 22.17L 39.04 21.72L 39.36 21.29L 39.70 20.86L 40.03 20.46L 40.38 20.06L 40.74 19.68L 41.10 19.32L 41.48 18.97L 41.86 18.64L 42.24 18.32L 42.64 18.02L 43.04 17.74L 43.44 17.47L 43.85 17.22L 44.27 16.99L 44.69 16.77L 45.12 16.57L 45.55 16.38L 45.98 16.22L 46.42 16.07L 46.86 15.93L 47.30 15.82L 47.75 15.72L 48.20 15.64L 48.65 15.58L 49.10 15.54L 49.55 15.51L 50.00 15.50L 50.45 15.51L 50.90 15.54L 51.35 15.58L 51.80 15.64L 52.25 15.72L 52.70 15.82L 53.14 15.93L 53.58 16.07L 54.02 16.22L 54.45 16.38L 54.88 16.57L 55.31 16.77L 55.73 16.99L 56.15 17.22L 56.56 17.47L 56.96 17.74L 57.36 18.02L 57.76 18.32L 58.14 18.64L 58.52 18.97L 58.90 19.32L 59.26 19.68L 59.62 20.06L 59.97 20.46L 60.30 20.86L 60.64 21.29L 60.96 21.72L 61.27 22.17L 61.57 22.64L 61.86 23.11L 62.14 23.60L 62.41 24.10L 62.67 24.62L 62.92 25.15L 63.16 25.68L 63.39 26.23L 63.60 26.80L 63.80 27.37L 63.99 27.95L 64.17 28.54L 64.33 29.14L 64.48 29.75L 64.62 30.37L 64.75 31.00L 64.86 31.64L 64.96 32.28L 65.04 32.93L 65.11 33.59L 65.17 34.25L 65.22 34.92L 65.24 35.60L 65.26 36.28L 65.26 36.97L 65.25 37.66L 65.22 38.35L 65.18 39.05L 65.12 39.75L 65.05 40.45L 64.97 41.16L 64.87 41.87L 64.75 42.58L 64.63 43.29L 64.48 44.00L 64.33 44.71L 64.16 45.42L 63.97 46.13L 63.77 46.84L 63.56 47.54L 63.33 48.25L 63.09 48.95L 62.84 49.65L 62.57 50.35L 62.29 51.04L 61.99 51.73L 61.69 52.41L 61.37 53.09L 61.03 53.77L 60.69 54.43L 60.33 55.09L 59.96 55.75L 59.58 56.40L 59.18 57.04L 58.78 57.67L 58.36 58.30L 57.93 58.92L 57.49 59.52L 57.05 60.12L 56.59 60.71L 56.12 61.29L 55.64 61.86L 55.15 62.42L 54.65 62.97L 54.15 63.51L 53.63 64.04L 53.11 64.55L 52.58 65.05L 52.04 65.54L 51.50 66.02L 50.95 66.49L 50.39 66.94L 49.83 67.38L 49.26 67.81L 48.69 68.22L 48.11 68.62L 47.52 69.01L 46.94 69.38L 46.34 69.73L 45.75 70.08L 45.15 70.40L 44.55 70.72L 43.95 71.01L 43.34 71.30L 42.74 71.56L 42.13 71.81L 41.53 72.05L 40.92 72.27L 40.31 72.48L 39.71 72.67L 39.10 72.84L 38.50 73.00L 37.90 73.14L 37.30 73.27L 36.70 73.38L 36.11 73.48L 35.52 73.56L 34.94 73.62L 34.36 73.67L 33.78 73.70L 33.21 73.72L 32.65 73.72L 32.09 73.70L 31.53 73.67L 30.99 73.63L 30.45 73.57L 29.92 73.49L 29.40 73.40L 28.88 73.30L 28.38 73.18L 27.88 73.04L 27.39 72.90L 26.91 72.73L 26.45 72.56L 25.99 72.37L 25.54 72.16L 25.11 71.94L 24.69 71.71L 24.27 71.47L 23.87 71.21L 23.49 70.95L 23.11 70.66L 22.75 70.37L 22.40 70.07L 22.07 69.75L 21.75 69.43L 21.44 69.09L 21.15 68.74L 20.87 68.38L 20.60 68.01L 20.36 67.64L 20.12 67.25L 19.90 66.85L 19.70 66.45L 19.51 66.04L 19.34 65.62L 19.19 65.19L 19.05 64.76L 18.93 64.31L 18.82 63.87L 18.73 63.41L 18.66 62.95L 18.60 62.49L 18.57 62.02L 18.54 61.54L 18.54 61.07L 18.55 60.58L 18.58 60.10L 18.63 59.61L 18.69 59.12L 18.77 58.63L 18.87 58.13L 18.98 57.64L 19.12 57.14L 19.26 56.64L 19.43 56.14L 19.61 55.64L 19.81 55.15L 20.03 54.65L 20.27 54.16L 20.52 53.66L 20.78 53.17L 21.07 52.68L 21.37 52.20L 21.68 51.71L 22.01 51.23L 22.36 50.76L 22.73 50.29L 23.10 49.82L 23.50 49.36L 23.91 48.91L 24.33 48.46L 24.77 48.02L 25.22 47.58L 25.69 47.15L 26.17 46.73L 26.67 46.31L 27.17 45.91L 27.70 45.51L 28.23 45.12L 28.78 44.73L 29.34 44.36L 29.91 44.00L 30.49 43.64L 31.08 43.30L 31.69 42.97L 32.30 42.64L 32.93 42.33L 33.56 42.03L 34.21 41.74L 34.86 41.46L 35.52 41.19L 36.19 40.93L 36.87 40.69L 37.56 40.46L 38.25 40.24L 38.95 40.03L 39.66 39.84L 40.37 39.65L 41.09 39.48L 41.82 39.33L 42.55 39.19L 43.28 39.06L 44.02 38.94L 44.76 38.84L 45.50 38.75L 46.25 38.67L 46.99 38.61L 47.74 38.56L 48.50 38.53L 49.25 38.51L 50.00 38.50 Z"/>
  <text x="22" y="54" text-anchor="middle" font-family="system-ui,sans-serif" font-size="5" fill="#444">Triquetra</text>
</g>
<g transform="translate(62,8)">
  <rect width="44" height="44" fill="#f8f8f8" stroke="#ddd"/>
  <path transform="translate(22,22) scale(0.38) translate(-50,-50)" d="M 74.00 50.00L 73.98 50.31L 73.94 50.63L 73.86 50.94L 73.75 51.24L 73.61 51.55L 73.43 51.84L 73.23 52.13L 73.00 52.42L 72.74 52.69L 72.46 52.96L 72.14 53.21L 71.80 53.45L 71.44 53.68L 71.05 53.90L 70.64 54.11L 70.21 54.30L 69.76 54.47L 69.30 54.63L 68.81 54.78L 68.31 54.91L 67.80 55.02L 67.28 55.12L 66.74 55.20L 66.20 55.26L 65.65 55.31L 65.10 55.35L 64.54 55.36L 63.98 55.37L 63.42 55.35L 62.86 55.33L 62.30 55.29L 61.75 55.23L 61.21 55.17L 60.67 55.09L 60.14 55.00L 59.63 54.91L 59.12 54.80L 58.63 54.69L 58.15 54.57L 57.69 54.44L 57.24 54.31L 56.82 54.18L 56.41 54.04L 56.02 53.91L 55.65 53.77L 55.30 53.64L 54.97 53.51L 54.66 53.39L 54.38 53.27L 54.12 53.16L 53.88 53.06L 53.66 52.97L 53.47 52.88L 53.30 52.81L 53.15 52.76L 53.02 52.72L 52.91 52.69L 52.83 52.68L 52.76 52.69L 52.72 52.72L 52.69 52.76L 52.68 52.83L 52.69 52.91L 52.72 53.02L 52.76 53.15L 52.81 53.30L 52.88 53.47L 52.97 53.66L 53.06 53.88L 53.16 54.12L 53.27 54.38L 53.39 54.66L 53.51 54.97L 53.64 55.30L 53.77 55.65L 53.91 56.02L 54.04 56.41L 54.18 56.82L 54.31 57.24L 54.44 57.69L 54.57 58.15L 54.69 58.63L 54.80 59.12L 54.91 59.63L 55.00 60.14L 55.09 60.67L 55.17 61.21L 55.23 61.75L 55.29 62.30L 55.33 62.86L 55.35 63.42L 55.37 63.98L 55.36 64.54L 55.35 65.10L 55.31 65.65L 55.26 66.20L 55.20 66.74L 55.12 67.28L 55.02 67.80L 54.91 68.31L 54.78 68.81L 54.63 69.30L 54.47 69.76L 54.30 70.21L 54.11 70.64L 53.90 71.05L 53.68 71.44L 53.45 71.80L 53.21 72.14L 52.96 72.46L 52.69 72.74L 52.42 73.00L 52.13 73.23L 51.84 73.43L 51.55 73.61L 51.24 73.75L 50.94 73.86L 50.63 73.94L 50.31 73.98L 50.00 74.00L 49.69 73.98L 49.37 73.94L 49.06 73.86L 48.76 73.75L 48.45 73.61L 48.16 73.43L 47.87 73.23L 47.58 73.00L 47.31 72.74L 47.04 72.46L 46.79 72.14L 46.55 71.80L 46.32 71.44L 46.10 71.05L 45.89 70.64L 45.70 70.21L 45.53 69.76L 45.37 69.30L 45.22 68.81L 45.09 68.31L 44.98 67.80L 44.88 67.28L 44.80 66.74L 44.74 66.20L 44.69 65.65L 44.65 65.10L 44.64 64.54L 44.63 63.98L 44.65 63.42L 44.67 62.86L 44.71 62.30L 44.77 61.75L 44.83 61.21L 44.91 60.67L 45.00 60.14L 45.09 59.63L 45.20 59.12L 45.31 58.63L 45.43 58.15L 45.56 57.69L 45.69 57.24L 45.82 56.82L 45.96 56.41L 46.09 56.02L 46.23 55.65L 46.36 55.30L 46.49 54.97L 46.61 54.66L 46.73 54.38L 46.84 54.12L 46.94 53.88L 47.03 53.66L 47.12 53.47L 47.19 53.30L 47.24 53.15L 47.28 53.02L 47.31 52.91L 47.32 52.83L 47.31 52.76L 47.28 52.72L 47.24 52.69L 47.17 52.68L 47.09 52.69L 46.98 52.72L 46.85 52.76L 46.70 52.81L 46.53 52.88L 46.34 52.97L 46.12 53.06L 45.88 53.16L 45.62 53.27L 45.34 53.39L 45.03 53.51L 44.70 53.64L 44.35 53.77L 43.98 53.91L 43.59 54.04L 43.18 54.18L 42.76 54.31L 42.31 54.44L 41.85 54.57L 41.37 54.69L 40.88 54.80L 40.37 54.91L 39.86 55.00L 39.33 55.09L 38.79 55.17L 38.25 55.23L 37.70 55.29L 37.14 55.33L 36.58 55.35L 36.02 55.37L 35.46 55.36L 34.90 55.35L 34.35 55.31L 33.80 55.26L 33.26 55.20L 32.72 55.12L 32.20 55.02L 31.69 54.91L 31.19 54.78L 30.70 54.63L 30.24 54.47L 29.79 54.30L 29.36 54.11L 28.95 53.90L 28.56 53.68L 28.20 53.45L 27.86 53.21L 27.54 52.96L 27.26 52.69L 27.00 52.42L 26.77 52.13L 26.57 51.84L 26.39 51.55L 26.25 51.24L 26.14 50.94L 26.06 50.63L 26.02 50.31L 26.00 50.00L 26.02 49.69L 26.06 49.37L 26.14 49.06L 26.25 48.76L 26.39 48.45L 26.57 48.16L 26.77 47.87L 27.00 47.58L 27.26 47.31L 27.54 47.04L 27.86 46.79L 28.20 46.55L 28.56 46.32L 28.95 46.10L 29.36 45.89L 29.79 45.70L 30.24 45.53L 30.70 45.37L 31.19 45.22L 31.69 45.09L 32.20 44.98L 32.72 44.88L 33.26 44.80L 33.80 44.74L 34.35 44.69L 34.90 44.65L 35.46 44.64L 36.02 44.63L 36.58 44.65L 37.14 44.67L 37.70 44.71L 38.25 44.77L 38.79 44.83L 39.33 44.91L 39.86 45.00L 40.37 45.09L 40.88 45.20L 41.37 45.31L 41.85 45.43L 42.31 45.56L 42.76 45.69L 43.18 45.82L 43.59 45.96L 43.98 46.09L 44.35 46.23L 44.70 46.36L 45.03 46.49L 45.34 46.61L 45.62 46.73L 45.88 46.84L 46.12 46.94L 46.34 47.03L 46.53 47.12L 46.70 47.19L 46.85 47.24L 46.98 47.28L 47.09 47.31L 47.17 47.32L 47.24 47.31L 47.28 47.28L 47.31 47.24L 47.32 47.17L 47.31 47.09L 47.28 46.98L 47.24 46.85L 47.19 46.70L 47.12 46.53L 47.03 46.34L 46.94 46.12L 46.84 45.88L 46.73 45.62L 46.61 45.34L 46.49 45.03L 46.36 44.70L 46.23 44.35L 46.09 43.98L 45.96 43.59L 45.82 43.18L 45.69 42.76L 45.56 42.31L 45.43 41.85L 45.31 41.37L 45.20 40.88L 45.09 40.37L 45.00 39.86L 44.91 39.33L 44.83 38.79L 44.77 38.25L 44.71 37.70L 44.67 37.14L 44.65 36.58L 44.63 36.02L 44.64 35.46L 44.65 34.90L 44.69 34.35L 44.74 33.80L 44.80 33.26L 44.88 32.72L 44.98 32.20L 45.09 31.69L 45.22 31.19L 45.37 30.70L 45.53 30.24L 45.70 29.79L 45.89 29.36L 46.10 28.95L 46.32 28.56L 46.55 28.20L 46.79 27.86L 47.04 27.54L 47.31 27.26L 47.58 27.00L 47.87 26.77L 48.16 26.57L 48.45 26.39L 48.76 26.25L 49.06 26.14L 49.37 26.06L 49.69 26.02L 50.00 26.00L 50.31 26.02L 50.63 26.06L 50.94 26.14L 51.24 26.25L 51.55 26.39L 51.84 26.57L 52.13 26.77L 52.42 27.00L 52.69 27.26L 52.96 27.54L 53.21 27.86L 53.45 28.20L 53.68 28.56L 53.90 28.95L 54.11 29.36L 54.30 29.79L 54.47 30.24L 54.63 30.70L 54.78 31.19L 54.91 31.69L 55.02 32.20L 55.12 32.72L 55.20 33.26L 55.26 33.80L 55.31 34.35L 55.35 34.90L 55.36 35.46L 55.37 36.02L 55.35 36.58L 55.33 37.14L 55.29 37.70L 55.23 38.25L 55.17 38.79L 55.09 39.33L 55.00 39.86L 54.91 40.37L 54.80 40.88L 54.69 41.37L 54.57 41.85L 54.44 42.31L 54.31 42.76L 54.18 43.18L 54.04 43.59L 53.91 43.98L 53.77 44.35L 53.64 44.70L 53.51 45.03L 53.39 45.34L 53.27 45.62L 53.16 45.88L 53.06 46.12L 52.97 46.34L 52.88 46.53L 52.81 46.70L 52.76 46.85L 52.72 46.98L 52.69 47.09L 52.68 47.17L 52.69 47.24L 52.72 47.28L 52.76 47.31L 52.83 47.32L 52.91 47.31L 53.02 47.28L 53.15 47.24L 53.30 47.19L 53.47 47.12L 53.66 47.03L 53.88 46.94L 54.12 46.84L 54.38 46.73L 54.66 46.61L 54.97 46.49L 55.30 46.36L 55.65 46.23L 56.02 46.09L 56.41 45.96L 56.82 45.82L 57.24 45.69L 57.69 45.56L 58.15 45.43L 58.63 45.31L 59.12 45.20L 59.63 45.09L 60.14 45.00L 60.67 44.91L 61.21 44.83L 61.75 44.77L 62.30 44.71L 62.86 44.67L 63.42 44.65L 63.98 44.63L 64.54 44.64L 65.10 44.65L 65.65 44.69L 66.20 44.74L 66.74 44.80L 67.28 44.88L 67.80 44.98L 68.31 45.09L 68.81 45.22L 69.30 45.37L 69.76 45.53L 70.21 45.70L 70.64 45.89L 71.05 46.10L 71.44 46.32L 71.80 46.55L 72.14 46.79L 72.46 47.04L 72.74 47.31L 73.00 47.58L 73.23 47.87L 73.43 48.16L 73.61 48.45L 73.75 48.76L 73.86 49.06L 73.94 49.37L 73.98 49.69L 74.00 50.00 Z"/>
  <text x="22" y="54" text-anchor="middle" font-family="system-ui,sans-serif" font-size="5" fill="#444">Four-Lobe</text>
</g>
<g transform="translate(114,8)">
  <rect width="44" height="44" fill="#f8f8f8" stroke="#ddd"/>
  <path transform="translate(22,22) scale(0.38) translate(-50,-50)" d="M 50.00 33.72L 50.91 33.74L 51.83 33.77L 52.74 33.82L 53.65 33.90L 54.55 33.99L 55.46 34.11L 56.36 34.25L 57.25 34.41L 58.14 34.59L 59.02 34.79L 59.89 35.01L 60.75 35.25L 61.61 35.51L 62.46 35.79L 63.29 36.10L 64.12 36.41L 64.93 36.75L 65.74 37.11L 66.53 37.48L 67.30 37.87L 68.06 38.28L 68.81 38.70L 69.54 39.15L 70.26 39.60L 70.96 40.07L 71.64 40.56L 72.31 41.06L 72.96 41.57L 73.59 42.10L 74.20 42.64L 74.80 43.19L 75.37 43.76L 75.92 44.33L 76.46 44.91L 76.97 45.51L 77.46 46.11L 77.93 46.72L 78.38 47.34L 78.81 47.96L 79.21 48.59L 79.59 49.23L 79.95 49.87L 80.29 50.52L 80.61 51.17L 80.90 51.82L 81.17 52.48L 81.41 53.13L 81.64 53.79L 81.84 54.45L 82.01 55.11L 82.16 55.76L 82.29 56.42L 82.40 57.07L 82.48 57.72L 82.55 58.36L 82.58 59.00L 82.60 59.64L 82.59 60.27L 82.56 60.89L 82.51 61.51L 82.43 62.12L 82.34 62.72L 82.22 63.31L 82.08 63.89L 81.92 64.47L 81.74 65.03L 81.54 65.58L 81.32 66.12L 81.08 66.65L 80.82 67.16L 80.55 67.66L 80.25 68.15L 79.94 68.63L 79.61 69.09L 79.26 69.53L 78.89 69.96L 78.51 70.38L 78.12 70.78L 77.71 71.16L 77.28 71.53L 76.84 71.87L 76.39 72.20L 75.92 72.52L 75.44 72.81L 74.95 73.09L 74.45 73.35L 73.94 73.59L 73.41 73.81L 72.88 74.02L 72.34 74.20L 71.79 74.37L 71.23 74.51L 70.67 74.64L 70.10 74.75L 69.52 74.84L 68.94 74.91L 68.35 74.96L 67.75 74.99L 67.16 75.00L 66.56 74.99L 65.96 74.96L 65.35 74.91L 64.75 74.85L 64.14 74.76L 63.53 74.66L 62.93 74.54L 62.32 74.40L 61.71 74.24L 61.11 74.06L 60.51 73.86L 59.91 73.65L 59.32 73.42L 58.72 73.18L 58.14 72.91L 57.55 72.63L 56.98 72.34L 56.40 72.03L 55.84 71.70L 55.28 71.36L 54.73 71.00L 54.18 70.63L 53.64 70.24L 53.11 69.84L 52.59 69.43L 52.07 69.01L 51.57 68.57L 51.07 68.12L 50.58 67.66L 50.11 67.19L 49.64 66.70L 49.18 66.21L 48.74 65.71L 48.30 65.20L 47.87 64.67L 47.46 64.14L 47.06 63.61L 46.67 63.06L 46.28 62.51L 45.92 61.95L 45.56 61.39L 45.21 60.81L 44.88 60.24L 44.56 59.66L 44.25 59.07L 43.95 58.48L 43.66 57.89L 43.39 57.30L 43.13 56.70L 42.88 56.10L 42.64 55.50L 42.42 54.89L 42.20 54.29L 42.00 53.68L 41.81 53.08L 41.63 52.48L 41.46 51.87L 41.31 51.27L 41.16 50.67L 41.03 50.07L 40.91 49.48L 40.80 48.88L 40.69 48.29L 40.60 47.70L 40.52 47.12L 40.46 46.54L 40.40 45.96L 40.35 45.39L 40.31 44.83L 40.28 44.26L 40.26 43.71L 40.24 43.16L 40.24 42.61L 40.25 42.07L 40.26 41.54L 40.28 41.02L 40.31 40.50L 40.35 39.99L 40.40 39.48L 40.45 38.98L 40.51 38.49L 40.57 38.01L 40.65 37.53L 40.73 37.07L 40.81 36.61L 40.90 36.16L 41.00 35.71L 41.10 35.28L 41.21 34.85L 41.33 34.43L 41.44 34.02L 41.57 33.62L 41.69 33.23L 41.82 32.85L 41.96 32.47L 42.10 32.11L 42.24 31.75L 42.38 31.40L 42.53 31.06L 42.68 30.73L 42.84 30.41L 43.00 30.09L 43.16 29.79L 43.32 29.49L 43.48 29.20L 43.65 28.93L 43.82 28.66L 43.99 28.39L 44.16 28.14L 44.33 27.90L 44.50 27.66L 44.68 27.43L 44.86 27.21L 45.03 27.00L 45.21 26.80L 45.39 26.61L 45.57 26.42L 45.75 26.24L 45.94 26.07L 46.12 25.91L 46.30 25.75L 46.48 25.61L 46.67 25.47L 46.85 25.34L 47.04 25.22L 47.22 25.10L 47.41 24.99L 47.59 24.89L 47.78 24.80L 47.96 24.72L 48.15 24.64L 48.33 24.57L 48.52 24.51L 48.70 24.45L 48.89 24.41L 49.07 24.37L 49.26 24.33L 49.44 24.31L 49.63 24.29L 49.81 24.28L 50.00 24.27L 50.19 24.28L 50.37 24.29L 50.56 24.31L 50.74 24.33L 50.93 24.37L 51.11 24.41L 51.30 24.45L 51.48 24.51L 51.67 24.57L 51.85 24.64L 52.04 24.72L 52.22 24.80L 52.41 24.89L 52.59 24.99L 52.78 25.10L 52.96 25.22L 53.15 25.34L 53.33 25.47L 53.52 25.61L 53.70 25.75L 53.88 25.91L 54.06 26.07L 54.25 26.24L 54.43 26.42L 54.61 26.61L 54.79 26.80L 54.97 27.00L 55.14 27.21L 55.32 27.43L 55.50 27.66L 55.67 27.90L 55.84 28.14L 56.01 28.39L 56.18 28.66L 56.35 28.93L 56.52 29.20L 56.68 29.49L 56.84 29.79L 57.00 30.09L 57.16 30.41L 57.32 30.73L 57.47 31.06L 57.62 31.40L 57.76 31.75L 57.90 32.11L 58.04 32.47L 58.18 32.85L 58.31 33.23L 58.43 33.62L 58.56 34.02L 58.67 34.43L 58.79 34.85L 58.90 35.28L 59.00 35.71L 59.10 36.16L 59.19 36.61L 59.27 37.07L 59.35 37.53L 59.43 38.01L 59.49 38.49L 59.55 38.98L 59.60 39.48L 59.65 39.99L 59.69 40.50L 59.72 41.02L 59.74 41.54L 59.75 42.07L 59.76 42.61L 59.76 43.16L 59.74 43.71L 59.72 44.26L 59.69 44.83L 59.65 45.39L 59.60 45.96L 59.54 46.54L 59.48 47.12L 59.40 47.70L 59.31 48.29L 59.20 48.88L 59.09 49.47L 58.97 50.07L 58.84 50.67L 58.69 51.27L 58.54 51.87L 58.37 52.48L 58.19 53.08L 58.00 53.68L 57.80 54.29L 57.58 54.89L 57.36 55.50L 57.12 56.10L 56.87 56.70L 56.61 57.30L 56.34 57.89L 56.05 58.48L 55.75 59.07L 55.44 59.66L 55.12 60.24L 54.79 60.81L 54.44 61.39L 54.08 61.95L 53.72 62.51L 53.33 63.06L 52.94 63.61L 52.54 64.14L 52.13 64.67L 51.70 65.20L 51.26 65.71L 50.82 66.21L 50.36 66.70L 49.89 67.19L 49.42 67.66L 48.93 68.12L 48.43 68.57L 47.93 69.01L 47.41 69.43L 46.89 69.84L 46.36 70.24L 45.82 70.63L 45.28 71.00L 44.72 71.36L 44.16 71.70L 43.60 72.03L 43.02 72.34L 42.45 72.63L 41.86 72.91L 41.28 73.18L 40.68 73.42L 40.09 73.65L 39.49 73.86L 38.89 74.06L 38.29 74.24L 37.68 74.40L 37.07 74.54L 36.47 74.66L 35.86 74.76L 35.25 74.85L 34.65 74.91L 34.04 74.96L 33.44 74.99L 32.84 75.00L 32.25 74.99L 31.65 74.96L 31.06 74.91L 30.48 74.84L 29.90 74.75L 29.33 74.64L 28.77 74.51L 28.21 74.37L 27.66 74.20L 27.12 74.02L 26.59 73.81L 26.06 73.59L 25.55 73.35L 25.05 73.09L 24.56 72.81L 24.08 72.52L 23.61 72.20L 23.16 71.87L 22.72 71.53L 22.29 71.16L 21.88 70.78L 21.49 70.38L 21.11 69.96L 20.74 69.53L 20.39 69.09L 20.06 68.63L 19.75 68.15L 19.45 67.66L 19.18 67.16L 18.92 66.65L 18.68 66.12L 18.46 65.58L 18.26 65.03L 18.08 64.47L 17.92 63.89L 17.78 63.31L 17.66 62.72L 17.57 62.12L 17.49 61.51L 17.44 60.89L 17.41 60.27L 17.40 59.64L 17.42 59.00L 17.45 58.36L 17.52 57.72L 17.60 57.07L 17.71 56.42L 17.84 55.76L 17.99 55.11L 18.16 54.45L 18.36 53.79L 18.59 53.13L 18.83 52.48L 19.10 51.82L 19.39 51.17L 19.71 50.52L 20.05 49.87L 20.41 49.23L 20.79 48.59L 21.19 47.96L 21.62 47.34L 22.07 46.72L 22.54 46.11L 23.03 45.51L 23.54 44.91L 24.08 44.33L 24.63 43.76L 25.20 43.19L 25.80 42.64L 26.41 42.10L 27.04 41.57L 27.69 41.06L 28.36 40.56L 29.04 40.07L 29.74 39.60L 30.46 39.15L 31.19 38.70L 31.94 38.28L 32.70 37.87L 33.47 37.48L 34.26 37.11L 35.07 36.75L 35.88 36.41L 36.71 36.10L 37.54 35.79L 38.39 35.51L 39.25 35.25L 40.11 35.01L 40.98 34.79L 41.86 34.59L 42.75 34.41L 43.64 34.25L 44.54 34.11L 45.45 33.99L 46.35 33.90L 47.26 33.82L 48.17 33.77L 49.09 33.74L 50.00 33.72 Z"/>
  <text x="22" y="54" text-anchor="middle" font-family="system-ui,sans-serif" font-size="5" fill="#444">Woven</text>
</g>
<g transform="translate(166,8)">
  <rect width="44" height="44" fill="#f8f8f8" stroke="#ddd"/>
  <path transform="translate(22,22) scale(0.38) translate(-50,-50)" d="M 72.00 50.00L 71.99 50.29L 71.98 50.58L 71.95 50.86L 71.91 51.15L 71.86 51.43L 71.80 51.71L 71.73 51.99L 71.64 52.26L 71.55 52.53L 71.45 52.80L 71.33 53.06L 71.21 53.32L 71.08 53.57L 70.94 53.82L 70.79 54.06L 70.63 54.29L 70.46 54.52L 70.29 54.74L 70.10 54.95L 69.92 55.15L 69.72 55.35L 69.52 55.54L 69.31 55.73L 69.10 55.90L 68.88 56.07L 68.66 56.23L 68.43 56.38L 68.20 56.52L 67.97 56.66L 67.73 56.78L 67.49 56.90L 67.25 57.01L 67.00 57.12L 66.75 57.21L 66.50 57.30L 66.25 57.38L 66.00 57.45L 65.75 57.51L 65.50 57.57L 65.24 57.62L 64.99 57.66L 64.74 57.70L 64.48 57.73L 64.23 57.75L 63.98 57.77L 63.73 57.78L 63.48 57.78L 63.23 57.78L 62.98 57.77L 62.73 57.75L 62.49 57.73L 62.25 57.71L 62.01 57.68L 61.77 57.64L 61.53 57.60L 61.29 57.56L 61.06 57.51L 60.83 57.45L 60.60 57.40L 60.37 57.33L 60.15 57.27L 59.92 57.20L 59.70 57.12L 59.48 57.05L 59.27 56.97L 59.05 56.88L 58.84 56.80L 58.63 56.71L 58.42 56.62L 58.22 56.52L 58.02 56.42L 57.82 56.32L 57.62 56.22L 57.42 56.12L 57.23 56.01L 57.03 55.90L 56.84 55.79L 56.66 55.68L 56.47 55.56L 56.29 55.44L 56.10 55.33L 55.92 55.21L 55.74 55.08L 55.57 54.96L 55.39 54.84L 55.22 54.71L 55.05 54.58L 54.88 54.46L 54.71 54.33L 54.54 54.20L 54.38 54.07L 54.21 53.93L 54.05 53.80L 53.89 53.67L 53.73 53.53L 53.57 53.39L 53.41 53.26L 53.26 53.12L 53.10 52.98L 52.95 52.85L 52.79 52.71L 52.64 52.57L 52.49 52.43L 52.34 52.29L 52.19 52.15L 52.04 52.00L 51.89 51.86L 51.74 51.72L 51.59 51.58L 51.45 51.44L 51.30 51.29L 51.16 51.15L 51.01 51.01L 50.87 50.86L 50.72 50.72L 50.58 50.58L 50.43 50.43L 50.29 50.29L 50.14 50.14L 50.00 50.00L 49.86 49.86L 49.71 49.71L 49.57 49.57L 49.42 49.42L 49.28 49.28L 49.13 49.14L 48.99 48.99L 48.84 48.85L 48.70 48.71L 48.55 48.56L 48.41 48.42L 48.26 48.28L 48.11 48.14L 47.96 48.00L 47.81 47.85L 47.66 47.71L 47.51 47.57L 47.36 47.43L 47.21 47.29L 47.05 47.15L 46.90 47.02L 46.74 46.88L 46.59 46.74L 46.43 46.61L 46.27 46.47L 46.11 46.33L 45.95 46.20L 45.79 46.07L 45.62 45.93L 45.46 45.80L 45.29 45.67L 45.12 45.54L 44.95 45.42L 44.78 45.29L 44.61 45.16L 44.43 45.04L 44.26 44.92L 44.08 44.79L 43.90 44.67L 43.71 44.56L 43.53 44.44L 43.34 44.32L 43.16 44.21L 42.97 44.10L 42.77 43.99L 42.58 43.88L 42.38 43.78L 42.18 43.68L 41.98 43.58L 41.78 43.48L 41.58 43.38L 41.37 43.29L 41.16 43.20L 40.95 43.12L 40.73 43.03L 40.52 42.95L 40.30 42.88L 40.08 42.80L 39.85 42.73L 39.63 42.67L 39.40 42.60L 39.17 42.55L 38.94 42.49L 38.71 42.44L 38.47 42.40L 38.23 42.36L 37.99 42.32L 37.75 42.29L 37.51 42.27L 37.27 42.25L 37.02 42.23L 36.77 42.22L 36.52 42.22L 36.27 42.22L 36.02 42.23L 35.77 42.25L 35.52 42.27L 35.26 42.30L 35.01 42.34L 34.76 42.38L 34.50 42.43L 34.25 42.49L 34.00 42.55L 33.75 42.62L 33.50 42.70L 33.25 42.79L 33.00 42.88L 32.75 42.99L 32.51 43.10L 32.27 43.22L 32.03 43.34L 31.80 43.48L 31.57 43.62L 31.34 43.77L 31.12 43.93L 30.90 44.10L 30.69 44.27L 30.48 44.46L 30.28 44.65L 30.08 44.85L 29.90 45.05L 29.71 45.26L 29.54 45.48L 29.37 45.71L 29.21 45.94L 29.06 46.18L 28.92 46.43L 28.79 46.68L 28.67 46.94L 28.55 47.20L 28.45 47.47L 28.36 47.74L 28.27 48.01L 28.20 48.29L 28.14 48.57L 28.09 48.85L 28.05 49.14L 28.02 49.42L 28.01 49.71L 28.00 50.00L 28.01 50.29L 28.02 50.58L 28.05 50.86L 28.09 51.15L 28.14 51.43L 28.20 51.71L 28.27 51.99L 28.36 52.26L 28.45 52.53L 28.55 52.80L 28.67 53.06L 28.79 53.32L 28.92 53.57L 29.06 53.82L 29.21 54.06L 29.37 54.29L 29.54 54.52L 29.71 54.74L 29.90 54.95L 30.08 55.15L 30.28 55.35L 30.48 55.54L 30.69 55.73L 30.90 55.90L 31.12 56.07L 31.34 56.23L 31.57 56.38L 31.80 56.52L 32.03 56.66L 32.27 56.78L 32.51 56.90L 32.75 57.01L 33.00 57.12L 33.25 57.21L 33.50 57.30L 33.75 57.38L 34.00 57.45L 34.25 57.51L 34.50 57.57L 34.76 57.62L 35.01 57.66L 35.26 57.70L 35.52 57.73L 35.77 57.75L 36.02 57.77L 36.27 57.78L 36.52 57.78L 36.77 57.78L 37.02 57.77L 37.27 57.75L 37.51 57.73L 37.75 57.71L 37.99 57.68L 38.23 57.64L 38.47 57.60L 38.71 57.56L 38.94 57.51L 39.17 57.45L 39.40 57.40L 39.63 57.33L 39.85 57.27L 40.08 57.20L 40.30 57.12L 40.52 57.05L 40.73 56.97L 40.95 56.88L 41.16 56.80L 41.37 56.71L 41.58 56.62L 41.78 56.52L 41.98 56.42L 42.18 56.32L 42.38 56.22L 42.58 56.12L 42.77 56.01L 42.97 55.90L 43.16 55.79L 43.34 55.68L 43.53 55.56L 43.71 55.44L 43.90 55.33L 44.08 55.21L 44.26 55.08L 44.43 54.96L 44.61 54.84L 44.78 54.71L 44.95 54.58L 45.12 54.46L 45.29 54.33L 45.46 54.20L 45.62 54.07L 45.79 53.93L 45.95 53.80L 46.11 53.67L 46.27 53.53L 46.43 53.39L 46.59 53.26L 46.74 53.12L 46.90 52.98L 47.05 52.85L 47.21 52.71L 47.36 52.57L 47.51 52.43L 47.66 52.29L 47.81 52.15L 47.96 52.00L 48.11 51.86L 48.26 51.72L 48.41 51.58L 48.55 51.44L 48.70 51.29L 48.84 51.15L 48.99 51.01L 49.13 50.86L 49.28 50.72L 49.42 50.58L 49.57 50.43L 49.71 50.29L 49.86 50.14L 50.00 50.00L 50.14 49.86L 50.29 49.71L 50.43 49.57L 50.58 49.42L 50.72 49.28L 50.87 49.14L 51.01 48.99L 51.16 48.85L 51.30 48.71L 51.45 48.56L 51.59 48.42L 51.74 48.28L 51.89 48.14L 52.04 48.00L 52.19 47.85L 52.34 47.71L 52.49 47.57L 52.64 47.43L 52.79 47.29L 52.95 47.15L 53.10 47.02L 53.26 46.88L 53.41 46.74L 53.57 46.61L 53.73 46.47L 53.89 46.33L 54.05 46.20L 54.21 46.07L 54.38 45.93L 54.54 45.80L 54.71 45.67L 54.88 45.54L 55.05 45.42L 55.22 45.29L 55.39 45.16L 55.57 45.04L 55.74 44.92L 55.92 44.79L 56.10 44.67L 56.29 44.56L 56.47 44.44L 56.66 44.32L 56.84 44.21L 57.03 44.10L 57.23 43.99L 57.42 43.88L 57.62 43.78L 57.82 43.68L 58.02 43.58L 58.22 43.48L 58.42 43.38L 58.63 43.29L 58.84 43.20L 59.05 43.12L 59.27 43.03L 59.48 42.95L 59.70 42.88L 59.92 42.80L 60.15 42.73L 60.37 42.67L 60.60 42.60L 60.83 42.55L 61.06 42.49L 61.29 42.44L 61.53 42.40L 61.77 42.36L 62.01 42.32L 62.25 42.29L 62.49 42.27L 62.73 42.25L 62.98 42.23L 63.23 42.22L 63.48 42.22L 63.73 42.22L 63.98 42.23L 64.23 42.25L 64.48 42.27L 64.74 42.30L 64.99 42.34L 65.24 42.38L 65.50 42.43L 65.75 42.49L 66.00 42.55L 66.25 42.62L 66.50 42.70L 66.75 42.79L 67.00 42.88L 67.25 42.99L 67.49 43.10L 67.73 43.22L 67.97 43.34L 68.20 43.48L 68.43 43.62L 68.66 43.77L 68.88 43.93L 69.10 44.10L 69.31 44.27L 69.52 44.46L 69.72 44.65L 69.92 44.85L 70.10 45.05L 70.29 45.26L 70.46 45.48L 70.63 45.71L 70.79 45.94L 70.94 46.18L 71.08 46.43L 71.21 46.68L 71.33 46.94L 71.45 47.20L 71.55 47.47L 71.64 47.74L 71.73 48.01L 71.80 48.29L 71.86 48.57L 71.91 48.85L 71.95 49.14L 71.98 49.42L 71.99 49.71L 72.00 50.00 Z"/>
  <text x="22" y="54" text-anchor="middle" font-family="system-ui,sans-serif" font-size="5" fill="#444">Infinity</text>
</g>
</svg>
