<?xml version="1.0" encoding="UTF-8"?>
<svg xmlns="http://www.w3.org/2000/svg" viewBox="0 0 220 220" fill="none" stroke="#111" stroke-width="1.4" stroke-linecap="round">
<title>Celtic knots 4x4 reference</title>
<g transform="translate(10,10)"><rect width="44" height="44" fill="#f8f8f8" stroke="#ddd"/><path transform="translate(22,22) scale(0.36) translate(-50,-50)" d="M 50.0 38.5L 51.8 38.5L 53.6 38.7L 55.4 38.9L 57.2 39.1L 58.9 39.5L 60.6 39.9L 62.3 40.4L 63.9 41.0L 65.5 41.6L 67.1 42.3L 68.6 43.1L 70.0 43.9L 71.3 44.8L 72.6 45.7L 73.8 46.7L 75.0 47.8L 76.0 48.8L 77.0 49.9L 77.8 51.0L 78.6 52.2L 79.3 53.4L 79.9 54.6L 80.4 55.7L 80.8 56.9L 81.1 58.1L 81.3 59.3L 81.4 60.5L 81.5 61.6L 81.4 62.8L 81.2 63.9L 80.9 64.9L 80.5 66.0L 80.1 66.9L 79.5 67.9L 78.9 68.7L 78.1 69.6L 77.3 70.3L 76.4 71.0L 75.5 71.6L 74.5 72.2L 73.4 72.6L 72.2 73.0L 71.0 73.3L 69.8 73.5L 68.5 73.7L 67.1 73.7L 65.8 73.7L 64.4 73.5L 62.9 73.3L 61.5 73.0L 60.1 72.6L 58.6 72.1L 57.1 71.5L 55.7 70.8L 54.3 70.1L 52.8 69.2L 51.4 68.3L 50.1 67.3L 48.7 66.2L 47.4 65.1L 46.2 63.8L 44.9 62.5L 43.8 61.2L 42.7 59.8L 41.6 58.3L 40.7 56.8L 39.7 55.2L 38.9 53.6L 38.1 52.0L 37.4 50.3L 36.8 48.7L 36.3 47.0L 35.8 45.3L 35.4 43.6L 35.1 41.9L 34.9 40.2L 34.8 38.5L 34.7 36.8L 34.8 35.2L 34.9 33.6L 35.1 32.0L 35.4 30.5L 35.7 29.0L 36.1 27.6L 36.6 26.2L 37.2 24.9L 37.8 23.7L 38.5 22.5L 39.2 21.5L 40.0 20.5L 40.9 19.5L 41.8 18.7L 42.7 18.0L 43.7 17.3L 44.7 16.8L 45.7 16.3L 46.8 16.0L 47.8 15.7L 48.9 15.6L 50.0 15.5L 51.1 15.6L 52.2 15.7L 53.2 16.0L 54.3 16.3L 55.3 16.8L 56.3 17.3L 57.3 18.0L 58.2 18.7L 59.1 19.5L 60.0 20.5L 60.8 21.5L 61.5 22.5L 62.2 23.7L 62.8 24.9L 63.4 26.2L 63.9 27.6L 64.3 29.0L 64.6 30.5L 64.9 32.0L 65.1 33.6L 65.2 35.2L 65.3 36.8L 65.2 38.5L 65.1 40.2L 64.9 41.9L 64.6 43.6L 64.2 45.3L 63.7 47.0L 63.2 48.7L 62.6 50.3L 61.9 52.0L 61.1 53.6L 60.3 55.2L 59.3 56.8L 58.4 58.3L 57.3 59.8L 56.2 61.2L 55.1 62.5L 53.8 63.8L 52.6 65.1L 51.3 66.2L 49.9 67.3L 48.6 68.3L 47.2 69.2L 45.7 70.1L 44.3 70.8L 42.9 71.5L 41.4 72.1L 39.9 72.6L 38.5 73.0L 37.1 73.3L 35.6 73.5L 34.2 73.7L 32.9 73.7L 31.5 73.7L 30.2 73.5L 29.0 73.3L 27.8 73.0L 26.6 72.6L 25.5 72.2L 24.5 71.6L 23.6 71.0L 22.7 70.3L 21.9 69.6L 21.1 68.7L 20.5 67.9L 19.9 66.9L 19.5 66.0L 19.1 64.9L 18.8 63.9L 18.6 62.8L 18.5 61.6L 18.6 60.5L 18.7 59.3L 18.9 58.1L 19.2 56.9L 19.6 55.7L 20.1 54.6L 20.7 53.4L 21.4 52.2L 22.2 51.0L 23.0 49.9L 24.0 48.8L 25.0 47.8L 26.2 46.7L 27.4 45.7L 28.7 44.8L 30.0 43.9L 31.4 43.1L 32.9 42.3L 34.5 41.6L 36.1 41.0L 37.7 40.4L 39.4 39.9L 41.1 39.5L 42.8 39.1L 44.6 38.9L 46.4 38.7L 48.2 38.5L 50.0 38.5 Z"/><text x="22" y="52" text-anchor="middle" font-size="4" font-family="system-ui" fill="#555">R1 Triquetra</text></g>
<g transform="translate(62,10)"><rect width="44" height="44" fill="#f8f8f8" stroke="#ddd"/><path transform="translate(22,22) scale(0.36) translate(-50,-50)" d="M 74.0 50.0L 73.9 50.8L 73.6 51.5L 73.2 52.2L 72.6 52.9L 71.8 53.5L 70.9 54.0L 69.9 54.4L 68.7 54.8L 67.5 55.1L 66.2 55.3L 64.9 55.4L 63.5 55.4L 62.2 55.3L 60.9 55.1L 59.6 54.9L 58.4 54.6L 57.3 54.3L 56.3 54.0L 55.4 53.7L 54.7 53.4L 54.0 53.1L 53.5 52.9L 53.1 52.7L 52.9 52.7L 52.7 52.7L 52.7 52.9L 52.7 53.1L 52.9 53.5L 53.1 54.0L 53.4 54.7L 53.7 55.4L 54.0 56.3L 54.3 57.3L 54.6 58.4L 54.9 59.6L 55.1 60.9L 55.3 62.2L 55.4 63.5L 55.4 64.9L 55.3 66.2L 55.1 67.5L 54.8 68.7L 54.4 69.9L 54.0 70.9L 53.5 71.8L 52.9 72.6L 52.2 73.2L 51.5 73.6L 50.8 73.9L 50.0 74.0L 49.2 73.9L 48.5 73.6L 47.8 73.2L 47.1 72.6L 46.5 71.8L 46.0 70.9L 45.6 69.9L 45.2 68.7L 44.9 67.5L 44.7 66.2L 44.6 64.9L 44.6 63.5L 44.7 62.2L 44.9 60.9L 45.1 59.6L 45.4 58.4L 45.7 57.3L 46.0 56.3L 46.3 55.4L 46.6 54.7L 46.9 54.0L 47.1 53.5L 47.3 53.1L 47.3 52.9L 47.3 52.7L 47.1 52.7L 46.9 52.7L 46.5 52.9L 46.0 53.1L 45.3 53.4L 44.6 53.7L 43.7 54.0L 42.7 54.3L 41.6 54.6L 40.4 54.9L 39.1 55.1L 37.8 55.3L 36.5 55.4L 35.1 55.4L 33.8 55.3L 32.5 55.1L 31.3 54.8L 30.1 54.4L 29.1 54.0L 28.2 53.5L 27.4 52.9L 26.8 52.2L 26.4 51.5L 26.1 50.8L 26.0 50.0L 26.1 49.2L 26.4 48.5L 26.8 47.8L 27.4 47.1L 28.2 46.5L 29.1 46.0L 30.1 45.6L 31.3 45.2L 32.5 44.9L 33.8 44.7L 35.1 44.6L 36.5 44.6L 37.8 44.7L 39.1 44.9L 40.4 45.1L 41.6 45.4L 42.7 45.7L 43.7 46.0L 44.6 46.3L 45.3 46.6L 46.0 46.9L 46.5 47.1L 46.9 47.3L 47.1 47.3L 47.3 47.3L 47.3 47.1L 47.3 46.9L 47.1 46.5L 46.9 46.0L 46.6 45.3L 46.3 44.6L 46.0 43.7L 45.7 42.7L 45.4 41.6L 45.1 40.4L 44.9 39.1L 44.7 37.8L 44.6 36.5L 44.6 35.1L 44.7 33.8L 44.9 32.5L 45.2 31.3L 45.6 30.1L 46.0 29.1L 46.5 28.2L 47.1 27.4L 47.8 26.8L 48.5 26.4L 49.2 26.1L 50.0 26.0L 50.8 26.1L 51.5 26.4L 52.2 26.8L 52.9 27.4L 53.5 28.2L 54.0 29.1L 54.4 30.1L 54.8 31.3L 55.1 32.5L 55.3 33.8L 55.4 35.1L 55.4 36.5L 55.3 37.8L 55.1 39.1L 54.9 40.4L 54.6 41.6L 54.3 42.7L 54.0 43.7L 53.7 44.6L 53.4 45.3L 53.1 46.0L 52.9 46.5L 52.7 46.9L 52.7 47.1L 52.7 47.3L 52.9 47.3L 53.1 47.3L 53.5 47.1L 54.0 46.9L 54.7 46.6L 55.4 46.3L 56.3 46.0L 57.3 45.7L 58.4 45.4L 59.6 45.1L 60.9 44.9L 62.2 44.7L 63.5 44.6L 64.9 44.6L 66.2 44.7L 67.5 44.9L 68.7 45.2L 69.9 45.6L 70.9 46.0L 71.8 46.5L 72.6 47.1L 73.2 47.8L 73.6 48.5L 73.9 49.2L 74.0 50.0 Z"/><text x="22" y="52" text-anchor="middle" font-size="4" font-family="system-ui" fill="#555">R1 Four-Lobe</text></g>
<g transform="translate(114,10)"><rect width="44" height="44" fill="#f8f8f8" stroke="#ddd"/><path transform="translate(22,22) scale(0.36) translate(-50,-50)" d="M 50.0 33.7L 52.2 33.8L 54.4 34.0L 56.5 34.3L 58.7 34.7L 60.8 35.3L 62.8 35.9L 64.8 36.7L 66.7 37.6L 68.5 38.5L 70.3 39.6L 71.9 40.8L 73.5 42.0L 74.9 43.3L 76.2 44.7L 77.5 46.1L 78.6 47.6L 79.5 49.1L 80.4 50.6L 81.1 52.2L 81.6 53.8L 82.1 55.4L 82.4 56.9L 82.6 58.5L 82.6 60.0L 82.5 61.5L 82.3 63.0L 82.0 64.4L 81.5 65.7L 80.9 67.0L 80.3 68.2L 79.5 69.3L 78.6 70.3L 77.6 71.2L 76.6 72.1L 75.4 72.8L 74.2 73.5L 73.0 74.0L 71.7 74.4L 70.3 74.7L 68.9 74.9L 67.5 75.0L 66.1 75.0L 64.6 74.8L 63.2 74.6L 61.7 74.2L 60.3 73.8L 58.8 73.2L 57.4 72.6L 56.1 71.8L 54.7 71.0L 53.4 70.1L 52.2 69.1L 51.0 68.0L 49.8 66.9L 48.7 65.7L 47.7 64.5L 46.7 63.2L 45.8 61.8L 45.0 60.5L 44.2 59.1L 43.6 57.7L 42.9 56.2L 42.4 54.8L 41.9 53.3L 41.5 51.9L 41.1 50.4L 40.8 49.0L 40.6 47.6L 40.4 46.2L 40.3 44.8L 40.2 43.5L 40.2 42.2L 40.3 40.9L 40.4 39.7L 40.5 38.5L 40.7 37.3L 40.9 36.2L 41.1 35.2L 41.4 34.2L 41.7 33.2L 42.0 32.3L 42.4 31.5L 42.7 30.7L 43.1 29.9L 43.5 29.2L 43.9 28.5L 44.3 27.9L 44.7 27.4L 45.1 26.9L 45.6 26.4L 46.0 26.0L 46.4 25.6L 46.9 25.3L 47.3 25.0L 47.8 24.8L 48.2 24.6L 48.7 24.5L 49.1 24.4L 49.6 24.3L 50.0 24.3L 50.4 24.3L 50.9 24.4L 51.3 24.5L 51.8 24.6L 52.2 24.8L 52.7 25.0L 53.1 25.3L 53.6 25.6L 54.0 26.0L 54.4 26.4L 54.9 26.9L 55.3 27.4L 55.7 27.9L 56.1 28.5L 56.5 29.2L 56.9 29.9L 57.3 30.7L 57.6 31.5L 58.0 32.3L 58.3 33.2L 58.6 34.2L 58.9 35.2L 59.1 36.2L 59.3 37.3L 59.5 38.5L 59.6 39.7L 59.7 40.9L 59.8 42.2L 59.8 43.5L 59.7 44.8L 59.6 46.2L 59.4 47.6L 59.2 49.0L 58.9 50.4L 58.5 51.9L 58.1 53.3L 57.6 54.8L 57.1 56.2L 56.4 57.7L 55.8 59.1L 55.0 60.5L 54.2 61.8L 53.3 63.2L 52.3 64.5L 51.3 65.7L 50.2 66.9L 49.0 68.0L 47.8 69.1L 46.6 70.1L 45.3 71.0L 43.9 71.8L 42.6 72.6L 41.2 73.2L 39.7 73.8L 38.3 74.2L 36.8 74.6L 35.4 74.8L 33.9 75.0L 32.5 75.0L 31.1 74.9L 29.7 74.7L 28.3 74.4L 27.0 74.0L 25.8 73.5L 24.6 72.8L 23.4 72.1L 22.4 71.2L 21.4 70.3L 20.5 69.3L 19.7 68.2L 19.1 67.0L 18.5 65.7L 18.0 64.4L 17.7 63.0L 17.5 61.5L 17.4 60.0L 17.4 58.5L 17.6 56.9L 17.9 55.4L 18.4 53.8L 18.9 52.2L 19.6 50.6L 20.5 49.1L 21.4 47.6L 22.5 46.1L 23.8 44.7L 25.1 43.3L 26.5 42.0L 28.1 40.8L 29.7 39.6L 31.5 38.5L 33.3 37.6L 35.2 36.7L 37.2 35.9L 39.2 35.3L 41.3 34.7L 43.5 34.3L 45.6 34.0L 47.8 33.8L 50.0 33.7 Z"/><text x="22" y="52" text-anchor="middle" font-size="4" font-family="system-ui" fill="#555">R1 Woven</text></g>
<g transform="translate(166,10)"><rect width="44" height="44" fill="#f8f8f8" stroke="#ddd"/><path transform="translate(22,22) scale(0.36) translate(-50,-50)" d="M 72.0 50.0L 72.0 50.7L 71.9 51.4L 71.7 52.0L 71.5 52.7L 71.2 53.3L 70.9 53.9L 70.5 54.5L 70.1 55.0L 69.6 55.5L 69.1 55.9L 68.6 56.3L 68.0 56.6L 67.4 56.9L 66.9 57.2L 66.3 57.4L 65.6 57.5L 65.0 57.7L 64.4 57.7L 63.8 57.8L 63.2 57.8L 62.6 57.7L 62.1 57.7L 61.5 57.6L 60.9 57.5L 60.4 57.3L 59.8 57.2L 59.3 57.0L 58.8 56.8L 58.3 56.6L 57.8 56.3L 57.3 56.1L 56.9 55.8L 56.4 55.5L 56.0 55.3L 55.6 55.0L 55.2 54.7L 54.7 54.4L 54.3 54.0L 54.0 53.7L 53.6 53.4L 53.2 53.1L 52.8 52.7L 52.5 52.4L 52.1 52.1L 51.7 51.7L 51.4 51.4L 51.0 51.0L 50.7 50.7L 50.3 50.3L 50.0 50.0L 49.7 49.7L 49.3 49.3L 49.0 49.0L 48.6 48.6L 48.3 48.3L 47.9 47.9L 47.5 47.6L 47.2 47.3L 46.8 46.9L 46.4 46.6L 46.0 46.3L 45.7 46.0L 45.3 45.6L 44.8 45.3L 44.4 45.0L 44.0 44.7L 43.6 44.5L 43.1 44.2L 42.7 43.9L 42.2 43.7L 41.7 43.4L 41.2 43.2L 40.7 43.0L 40.2 42.8L 39.6 42.7L 39.1 42.5L 38.5 42.4L 37.9 42.3L 37.4 42.3L 36.8 42.2L 36.2 42.2L 35.6 42.3L 35.0 42.3L 34.4 42.5L 33.7 42.6L 33.1 42.8L 32.6 43.1L 32.0 43.4L 31.4 43.7L 30.9 44.1L 30.4 44.5L 29.9 45.0L 29.5 45.5L 29.1 46.1L 28.8 46.7L 28.5 47.3L 28.3 48.0L 28.1 48.6L 28.0 49.3L 28.0 50.0L 28.0 50.7L 28.1 51.4L 28.3 52.0L 28.5 52.7L 28.8 53.3L 29.1 53.9L 29.5 54.5L 29.9 55.0L 30.4 55.5L 30.9 55.9L 31.4 56.3L 32.0 56.6L 32.6 56.9L 33.1 57.2L 33.7 57.4L 34.4 57.5L 35.0 57.7L 35.6 57.7L 36.2 57.8L 36.8 57.8L 37.4 57.7L 37.9 57.7L 38.5 57.6L 39.1 57.5L 39.6 57.3L 40.2 57.2L 40.7 57.0L 41.2 56.8L 41.7 56.6L 42.2 56.3L 42.7 56.1L 43.1 55.8L 43.6 55.5L 44.0 55.3L 44.4 55.0L 44.8 54.7L 45.3 54.4L 45.7 54.0L 46.0 53.7L 46.4 53.4L 46.8 53.1L 47.2 52.7L 47.5 52.4L 47.9 52.1L 48.3 51.7L 48.6 51.4L 49.0 51.0L 49.3 50.7L 49.7 50.3L 50.0 50.0L 50.3 49.7L 50.7 49.3L 51.0 49.0L 51.4 48.6L 51.7 48.3L 52.1 47.9L 52.5 47.6L 52.8 47.3L 53.2 46.9L 53.6 46.6L 54.0 46.3L 54.3 46.0L 54.7 45.6L 55.2 45.3L 55.6 45.0L 56.0 44.7L 56.4 44.5L 56.9 44.2L 57.3 43.9L 57.8 43.7L 58.3 43.4L 58.8 43.2L 59.3 43.0L 59.8 42.8L 60.4 42.7L 60.9 42.5L 61.5 42.4L 62.1 42.3L 62.6 42.3L 63.2 42.2L 63.8 42.2L 64.4 42.3L 65.0 42.3L 65.6 42.5L 66.3 42.6L 66.9 42.8L 67.4 43.1L 68.0 43.4L 68.6 43.7L 69.1 44.1L 69.6 44.5L 70.1 45.0L 70.5 45.5L 70.9 46.1L 71.2 46.7L 71.5 47.3L 71.7 48.0L 71.9 48.6L 72.0 49.3L 72.0 50.0 Z"/><text x="22" y="52" text-anchor="middle" font-size="4" font-family="system-ui" fill="#555">R1 Infinity</text></g>
<g transform="translate(10,62)"><rect width="44" height="44" fill="#f8f8f8" stroke="#ddd"/><path transform="translate(22,22) scale(0.36) translate(-50,-50)" d="M 50.0 75.5L 50.8 75.4L 51.5 75.3L 52.3 75.2L 53.0 75.1L 53.7 74.9L 54.5 74.7L 55.2 74.5L 55.9 74.2L 56.6 74.0L 57.3 73.7L 58.0 73.4L 58.6 73.1L 59.3 72.8L 59.9 72.5L 60.5 72.1L 61.1 71.7L 61.7 71.4L 62.3 71.0L 62.8 70.5L 63.3 70.1L 63.8 69.7L 64.3 69.3L 64.8 68.8L 65.2 68.3L 65.6 67.9L 66.0 67.4L 66.4 66.9L 66.7 66.4L 67.1 65.9L 67.4 65.4L 67.7 64.9L 68.0 64.3L 68.2 63.8L 68.4 63.3L 68.7 62.7L 68.9 62.2L 69.1 61.6L 69.2 61.1L 69.4 60.5L 69.5 59.9L 69.6 59.3L 69.8 58.8L 69.9 58.2L 69.9 57.6L 70.0 57.0L 70.1 56.4L 70.1 55.8L 70.1 55.2L 70.2 54.6L 70.2 54.0L 70.2 53.4L 70.1 52.8L 70.1 52.1L 70.1 51.5L 70.0 50.9L 69.9 50.3L 69.9 49.6L 69.8 49.0L 69.6 48.3L 69.5 47.7L 69.4 47.0L 69.2 46.4L 69.1 45.7L 68.9 45.1L 68.7 44.4L 68.4 43.8L 68.2 43.1L 68.0 42.4L 67.7 41.8L 67.4 41.1L 67.1 40.4L 66.7 39.8L 66.4 39.1L 66.0 38.5L 65.6 37.8L 65.2 37.1L 64.8 36.5L 64.3 35.8L 63.8 35.2L 63.3 34.6L 62.8 33.9L 62.3 33.3L 61.7 32.7L 61.1 32.1L 60.5 31.5L 59.9 30.9L 59.3 30.4L 58.6 29.8L 58.0 29.3L 57.3 28.7L 56.6 28.2L 55.9 27.7L 55.2 27.3L 54.5 26.8L 53.7 26.4L 53.0 25.9L 52.3 25.6L 51.5 25.2L 50.8 24.8L 50.0 24.5L 49.2 24.2L 48.5 23.9L 47.7 23.7L 47.0 23.5L 46.3 23.3L 45.5 23.1L 44.8 23.0L 44.1 22.9L 43.4 22.8L 42.7 22.7L 42.0 22.7L 41.4 22.8L 40.7 22.8L 40.1 22.9L 39.5 23.0L 38.9 23.2L 38.3 23.4L 37.7 23.6L 37.2 23.9L 36.7 24.2L 36.2 24.5L 35.7 24.9L 35.2 25.3L 34.8 25.7L 34.4 26.1L 34.0 26.6L 33.6 27.2L 33.3 27.7L 32.9 28.3L 32.6 28.9L 32.3 29.6L 32.0 30.2L 31.8 30.9L 31.6 31.7L 31.3 32.4L 31.1 33.2L 30.9 34.0L 30.8 34.8L 30.6 35.7L 30.5 36.6L 30.4 37.4L 30.2 38.3L 30.1 39.3L 30.1 40.2L 30.0 41.1L 29.9 42.1L 29.9 43.1L 29.9 44.0L 29.8 45.0L 29.8 46.0L 29.8 47.0L 29.9 48.0L 29.9 49.0L 29.9 50.0L 30.0 51.0L 30.1 52.0L 30.1 52.9L 30.2 53.9L 30.4 54.9L 30.5 55.8L 30.6 56.8L 30.8 57.7L 30.9 58.6L 31.1 59.5L 31.3 60.4L 31.6 61.3L 31.8 62.2L 32.0 63.0L 32.3 63.8L 32.6 64.6L 32.9 65.4L 33.3 66.1L 33.6 66.8L 34.0 67.5L 34.4 68.2L 34.8 68.8L 35.2 69.5L 35.7 70.0L 36.2 70.6L 36.7 71.1L 37.2 71.6L 37.7 72.1L 38.3 72.5L 38.9 73.0L 39.5 73.3L 40.1 73.7L 40.7 74.0L 41.4 74.3L 42.0 74.5L 42.7 74.8L 43.4 75.0L 44.1 75.1L 44.8 75.3L 45.5 75.4L 46.3 75.5L 47.0 75.5L 47.7 75.6L 48.5 75.6L 49.2 75.6L 50.0 75.5 Z"/><text x="22" y="52" text-anchor="middle" font-size="4" font-family="system-ui" fill="#555">R2 Shield</text></g>
<g transform="translate(62,62)"><rect width="44" height="44" fill="#f8f8f8" stroke="#ddd"/><path transform="translate(22,22) scale(0.36) translate(-50,-50)" d="M 71.6 50.0L 71.5 50.7L 71.0 51.3L 70.2 51.9L 69.2 52.4L 67.9 52.8L 66.6 53.2L 65.1 53.4L 63.6 53.5L 62.1 53.5L 60.8 53.5L 59.6 53.4L 58.5 53.4L 57.7 53.3L 57.0 53.3L 56.6 53.3L 56.3 53.5L 56.1 53.6L 56.1 53.9L 56.2 54.2L 56.3 54.6L 56.4 54.9L 56.4 55.3L 56.4 55.7L 56.3 55.9L 56.2 56.2L 55.9 56.3L 55.7 56.4L 55.3 56.4L 54.9 56.4L 54.6 56.3L 54.2 56.2L 53.9 56.1L 53.6 56.1L 53.5 56.3L 53.3 56.6L 53.3 57.0L 53.3 57.7L 53.4 58.5L 53.4 59.6L 53.5 60.8L 53.5 62.1L 53.5 63.6L 53.4 65.1L 53.2 66.6L 52.8 67.9L 52.4 69.2L 51.9 70.2L 51.3 71.0L 50.7 71.5L 50.0 71.6L 49.3 71.5L 48.7 71.0L 48.1 70.2L 47.6 69.2L 47.2 67.9L 46.8 66.6L 46.6 65.1L 46.5 63.6L 46.5 62.1L 46.5 60.8L 46.6 59.6L 46.6 58.5L 46.7 57.7L 46.7 57.0L 46.7 56.6L 46.5 56.3L 46.4 56.1L 46.1 56.1L 45.8 56.2L 45.4 56.3L 45.1 56.4L 44.7 56.4L 44.3 56.4L 44.1 56.3L 43.8 56.2L 43.7 55.9L 43.6 55.7L 43.6 55.3L 43.6 54.9L 43.7 54.6L 43.8 54.2L 43.9 53.9L 43.9 53.6L 43.7 53.5L 43.4 53.3L 43.0 53.3L 42.3 53.3L 41.5 53.4L 40.4 53.4L 39.2 53.5L 37.9 53.5L 36.4 53.5L 34.9 53.4L 33.4 53.2L 32.1 52.8L 30.8 52.4L 29.8 51.9L 29.0 51.3L 28.5 50.7L 28.4 50.0L 28.5 49.3L 29.0 48.7L 29.8 48.1L 30.8 47.6L 32.1 47.2L 33.4 46.8L 34.9 46.6L 36.4 46.5L 37.9 46.5L 39.2 46.5L 40.4 46.6L 41.5 46.6L 42.3 46.7L 43.0 46.7L 43.4 46.7L 43.7 46.5L 43.9 46.4L 43.9 46.1L 43.8 45.8L 43.7 45.4L 43.6 45.1L 43.6 44.7L 43.6 44.3L 43.7 44.1L 43.8 43.8L 44.1 43.7L 44.3 43.6L 44.7 43.6L 45.1 43.6L 45.4 43.7L 45.8 43.8L 46.1 43.9L 46.4 43.9L 46.5 43.7L 46.7 43.4L 46.7 43.0L 46.7 42.3L 46.6 41.5L 46.6 40.4L 46.5 39.2L 46.5 37.9L 46.5 36.4L 46.6 34.9L 46.8 33.4L 47.2 32.1L 47.6 30.8L 48.1 29.8L 48.7 29.0L 49.3 28.5L 50.0 28.4L 50.7 28.5L 51.3 29.0L 51.9 29.8L 52.4 30.8L 52.8 32.1L 53.2 33.4L 53.4 34.9L 53.5 36.4L 53.5 37.9L 53.5 39.2L 53.4 40.4L 53.4 41.5L 53.3 42.3L 53.3 43.0L 53.3 43.4L 53.5 43.7L 53.6 43.9L 53.9 43.9L 54.2 43.8L 54.6 43.7L 54.9 43.6L 55.3 43.6L 55.7 43.6L 55.9 43.7L 56.2 43.8L 56.3 44.1L 56.4 44.3L 56.4 44.7L 56.4 45.1L 56.3 45.4L 56.2 45.8L 56.1 46.1L 56.1 46.4L 56.3 46.5L 56.6 46.7L 57.0 46.7L 57.7 46.7L 58.5 46.6L 59.6 46.6L 60.8 46.5L 62.1 46.5L 63.6 46.5L 65.1 46.6L 66.6 46.8L 67.9 47.2L 69.2 47.6L 70.2 48.1L 71.0 48.7L 71.5 49.3L 71.6 50.0 Z"/><text x="22" y="52" text-anchor="middle" font-size="4" font-family="system-ui" fill="#555">R2 Quatrefoil</text></g>
<g transform="translate(114,62)"><rect width="44" height="44" fill="#f8f8f8" stroke="#ddd"/><path transform="translate(22,22) scale(0.36) translate(-50,-50)" d="M 66.0 59.0L 65.1 59.5L 64.3 59.8L 63.4 60.1L 62.6 60.4L 61.7 60.5L 60.9 60.6L 60.1 60.6L 59.3 60.5L 58.6 60.4L 57.9 60.2L 57.3 60.0L 56.7 59.7L 56.2 59.4L 55.8 59.1L 55.4 58.7L 55.0 58.3L 54.8 57.9L 54.6 57.4L 54.5 57.0L 54.4 56.6L 54.4 56.2L 54.4 55.9L 54.6 55.5L 54.7 55.2L 54.9 54.9L 55.2 54.7L 55.5 54.6L 55.9 54.4L 56.2 54.4L 56.6 54.4L 57.0 54.5L 57.4 54.6L 57.9 54.8L 58.3 55.0L 58.7 55.4L 59.1 55.8L 59.4 56.2L 59.7 56.7L 60.0 57.3L 60.2 57.9L 60.4 58.6L 60.5 59.3L 60.6 60.1L 60.6 60.9L 60.5 61.7L 60.4 62.6L 60.1 63.4L 59.8 64.3L 59.5 65.1L 59.0 66.0L 58.5 66.8L 57.8 67.7L 57.1 68.4L 56.4 69.2L 55.5 69.9L 54.6 70.5L 53.6 71.1L 52.6 71.7L 51.5 72.1L 50.3 72.5L 49.2 72.8L 47.9 73.0L 46.7 73.2L 45.4 73.2L 44.1 73.1L 42.9 73.0L 41.6 72.8L 40.3 72.4L 39.0 72.0L 37.8 71.5L 36.6 70.9L 35.5 70.2L 34.4 69.4L 33.3 68.6L 32.3 67.7L 31.4 66.7L 30.6 65.6L 29.8 64.5L 29.1 63.4L 28.5 62.2L 28.0 61.0L 27.6 59.7L 27.2 58.4L 27.0 57.1L 26.9 55.9L 26.8 54.6L 26.8 53.3L 27.0 52.1L 27.2 50.8L 27.5 49.7L 27.9 48.5L 28.3 47.4L 28.9 46.4L 29.5 45.4L 30.1 44.5L 30.8 43.6L 31.6 42.9L 32.3 42.2L 33.2 41.5L 34.0 41.0L 34.9 40.5L 35.7 40.2L 36.6 39.9L 37.4 39.6L 38.3 39.5L 39.1 39.4L 39.9 39.4L 40.7 39.5L 41.4 39.6L 42.1 39.8L 42.7 40.0L 43.3 40.3L 43.8 40.6L 44.2 40.9L 44.6 41.3L 45.0 41.7L 45.2 42.1L 45.4 42.6L 45.5 43.0L 45.6 43.4L 45.6 43.8L 45.6 44.1L 45.4 44.5L 45.3 44.8L 45.1 45.1L 44.8 45.3L 44.5 45.4L 44.1 45.6L 43.8 45.6L 43.4 45.6L 43.0 45.5L 42.6 45.4L 42.1 45.2L 41.7 45.0L 41.3 44.6L 40.9 44.2L 40.6 43.8L 40.3 43.3L 40.0 42.7L 39.8 42.1L 39.6 41.4L 39.5 40.7L 39.4 39.9L 39.4 39.1L 39.5 38.3L 39.6 37.4L 39.9 36.6L 40.2 35.7L 40.5 34.9L 41.0 34.0L 41.5 33.2L 42.2 32.3L 42.9 31.6L 43.6 30.8L 44.5 30.1L 45.4 29.5L 46.4 28.9L 47.4 28.3L 48.5 27.9L 49.7 27.5L 50.8 27.2L 52.1 27.0L 53.3 26.8L 54.6 26.8L 55.9 26.9L 57.1 27.0L 58.4 27.2L 59.7 27.6L 61.0 28.0L 62.2 28.5L 63.4 29.1L 64.5 29.8L 65.6 30.6L 66.7 31.4L 67.7 32.3L 68.6 33.3L 69.4 34.4L 70.2 35.5L 70.9 36.6L 71.5 37.8L 72.0 39.0L 72.4 40.3L 72.8 41.6L 73.0 42.9L 73.1 44.1L 73.2 45.4L 73.2 46.7L 73.0 47.9L 72.8 49.2L 72.5 50.3L 72.1 51.5L 71.7 52.6L 71.1 53.6L 70.5 54.6L 69.9 55.5L 69.2 56.4L 68.4 57.1L 67.7 57.8L 66.8 58.5L 66.0 59.0 Z"/><text x="22" y="52" text-anchor="middle" font-size="4" font-family="system-ui" fill="#555">R2 Triskelion</text></g>
<g transform="translate(166,62)"><rect width="44" height="44" fill="#f8f8f8" stroke="#ddd"/><path transform="translate(22,22) scale(0.36) translate(-50,-50)" d="M 74.0 50.0L 73.9 50.8L 73.7 51.5L 73.4 52.2L 73.0 52.9L 72.4 53.6L 71.8 54.2L 71.0 54.7L 70.2 55.2L 69.3 55.6L 68.4 56.0L 67.4 56.3L 66.5 56.5L 65.5 56.7L 64.5 56.8L 63.5 56.9L 62.6 56.9L 61.8 57.0L 61.0 57.0L 60.2 57.0L 59.6 57.0L 59.0 57.0L 58.5 57.0L 58.1 57.1L 57.7 57.3L 57.5 57.5L 57.3 57.7L 57.1 58.1L 57.0 58.5L 57.0 59.0L 57.0 59.6L 57.0 60.2L 57.0 61.0L 57.0 61.8L 56.9 62.6L 56.9 63.5L 56.8 64.5L 56.7 65.5L 56.5 66.5L 56.3 67.4L 56.0 68.4L 55.6 69.3L 55.2 70.2L 54.7 71.0L 54.2 71.8L 53.6 72.4L 52.9 73.0L 52.2 73.4L 51.5 73.7L 50.8 73.9L 50.0 74.0L 49.2 73.9L 48.5 73.7L 47.8 73.4L 47.1 73.0L 46.4 72.4L 45.8 71.8L 45.3 71.0L 44.8 70.2L 44.4 69.3L 44.0 68.4L 43.7 67.4L 43.5 66.5L 43.3 65.5L 43.2 64.5L 43.1 63.5L 43.1 62.6L 43.0 61.8L 43.0 61.0L 43.0 60.2L 43.0 59.6L 43.0 59.0L 43.0 58.5L 42.9 58.1L 42.7 57.7L 42.5 57.5L 42.3 57.3L 41.9 57.1L 41.5 57.0L 41.0 57.0L 40.4 57.0L 39.8 57.0L 39.0 57.0L 38.2 57.0L 37.4 56.9L 36.5 56.9L 35.5 56.8L 34.5 56.7L 33.5 56.5L 32.6 56.3L 31.6 56.0L 30.7 55.6L 29.8 55.2L 29.0 54.7L 28.2 54.2L 27.6 53.6L 27.0 52.9L 26.6 52.2L 26.3 51.5L 26.1 50.8L 26.0 50.0L 26.1 49.2L 26.3 48.5L 26.6 47.8L 27.0 47.1L 27.6 46.4L 28.2 45.8L 29.0 45.3L 29.8 44.8L 30.7 44.4L 31.6 44.0L 32.6 43.7L 33.5 43.5L 34.5 43.3L 35.5 43.2L 36.5 43.1L 37.4 43.1L 38.2 43.0L 39.0 43.0L 39.8 43.0L 40.4 43.0L 41.0 43.0L 41.5 43.0L 41.9 42.9L 42.3 42.7L 42.5 42.5L 42.7 42.3L 42.9 41.9L 43.0 41.5L 43.0 41.0L 43.0 40.4L 43.0 39.8L 43.0 39.0L 43.0 38.2L 43.1 37.4L 43.1 36.5L 43.2 35.5L 43.3 34.5L 43.5 33.5L 43.7 32.6L 44.0 31.6L 44.4 30.7L 44.8 29.8L 45.3 29.0L 45.8 28.2L 46.4 27.6L 47.1 27.0L 47.8 26.6L 48.5 26.3L 49.2 26.1L 50.0 26.0L 50.8 26.1L 51.5 26.3L 52.2 26.6L 52.9 27.0L 53.6 27.6L 54.2 28.2L 54.7 29.0L 55.2 29.8L 55.6 30.7L 56.0 31.6L 56.3 32.6L 56.5 33.5L 56.7 34.5L 56.8 35.5L 56.9 36.5L 56.9 37.4L 57.0 38.2L 57.0 39.0L 57.0 39.8L 57.0 40.4L 57.0 41.0L 57.0 41.5L 57.1 41.9L 57.3 42.3L 57.5 42.5L 57.7 42.7L 58.1 42.9L 58.5 43.0L 59.0 43.0L 59.6 43.0L 60.2 43.0L 61.0 43.0L 61.8 43.0L 62.6 43.1L 63.5 43.1L 64.5 43.2L 65.5 43.3L 66.5 43.5L 67.4 43.7L 68.4 44.0L 69.3 44.4L 70.2 44.8L 71.0 45.3L 71.8 45.8L 72.4 46.4L 73.0 47.1L 73.4 47.8L 73.7 48.5L 73.9 49.2L 74.0 50.0 Z"/><text x="22" y="52" text-anchor="middle" font-size="4" font-family="system-ui" fill="#555">R2 Square</text></g>
<g transform="translate(10,114)"><rect width="44" height="44" fill="#f8f8f8" stroke="#ddd"/><path transform="translate(22,22) scale(0.36) translate(-50,-50)" d="M 72.0 50.0L 72.0 50.7L 71.9 51.4L 71.9 52.1L 71.7 52.7L 71.6 53.4L 71.4 54.1L 71.2 54.7L 71.0 55.4L 70.7 56.0L 70.4 56.6L 70.1 57.2L 69.7 57.8L 69.4 58.4L 69.0 58.9L 68.5 59.4L 68.1 59.9L 67.6 60.4L 67.1 60.9L 66.6 61.3L 66.1 61.7L 65.6 62.1L 65.0 62.4L 64.4 62.7L 63.9 63.0L 63.3 63.3L 63.0 63.9L 62.7 64.4L 62.4 65.0L 62.1 65.6L 61.7 66.1L 61.3 66.6L 60.9 67.1L 60.4 67.6L 59.9 68.1L 59.4 68.5L 58.9 69.0L 58.4 69.4L 57.8 69.7L 57.2 70.1L 56.6 70.4L 56.0 70.7L 55.4 71.0L 54.7 71.2L 54.1 71.4L 53.4 71.6L 52.7 71.7L 52.1 71.9L 51.4 71.9L 50.7 72.0L 50.0 72.0L 49.3 72.0L 48.6 71.9L 47.9 71.9L 47.3 71.7L 46.6 71.6L 45.9 71.4L 45.3 71.2L 44.6 71.0L 44.0 70.7L 43.4 70.4L 42.8 70.1L 42.2 69.7L 41.6 69.4L 41.1 69.0L 40.6 68.5L 40.1 68.1L 39.6 67.6L 39.1 67.1L 38.7 66.6L 38.3 66.1L 37.9 65.6L 37.6 65.0L 37.3 64.4L 37.0 63.9L 36.7 63.3L 36.1 63.0L 35.6 62.7L 35.0 62.4L 34.4 62.1L 33.9 61.7L 33.4 61.3L 32.9 60.9L 32.4 60.4L 31.9 59.9L 31.5 59.4L 31.0 58.9L 30.6 58.4L 30.3 57.8L 29.9 57.2L 29.6 56.6L 29.3 56.0L 29.0 55.4L 28.8 54.7L 28.6 54.1L 28.4 53.4L 28.3 52.7L 28.1 52.1L 28.1 51.4L 28.0 50.7L 28.0 50.0L 28.0 49.3L 28.1 48.6L 28.1 47.9L 28.3 47.3L 28.4 46.6L 28.6 45.9L 28.8 45.3L 29.0 44.6L 29.3 44.0L 29.6 43.4L 29.9 42.8L 30.3 42.2L 30.6 41.6L 31.0 41.1L 31.5 40.6L 31.9 40.1L 32.4 39.6L 32.9 39.1L 33.4 38.7L 33.9 38.3L 34.4 37.9L 35.0 37.6L 35.6 37.3L 36.1 37.0L 36.7 36.7L 37.0 36.1L 37.3 35.6L 37.6 35.0L 37.9 34.4L 38.3 33.9L 38.7 33.4L 39.1 32.9L 39.6 32.4L 40.1 31.9L 40.6 31.5L 41.1 31.0L 41.6 30.6L 42.2 30.3L 42.8 29.9L 43.4 29.6L 44.0 29.3L 44.6 29.0L 45.3 28.8L 45.9 28.6L 46.6 28.4L 47.3 28.3L 47.9 28.1L 48.6 28.1L 49.3 28.0L 50.0 28.0L 50.7 28.0L 51.4 28.1L 52.1 28.1L 52.7 28.3L 53.4 28.4L 54.1 28.6L 54.7 28.8L 55.4 29.0L 56.0 29.3L 56.6 29.6L 57.2 29.9L 57.8 30.3L 58.4 30.6L 58.9 31.0L 59.4 31.5L 59.9 31.9L 60.4 32.4L 60.9 32.9L 61.3 33.4L 61.7 33.9L 62.1 34.4L 62.4 35.0L 62.7 35.6L 63.0 36.1L 63.3 36.7L 63.9 37.0L 64.4 37.3L 65.0 37.6L 65.6 37.9L 66.1 38.3L 66.6 38.7L 67.1 39.1L 67.6 39.6L 68.1 40.1L 68.5 40.6L 69.0 41.1L 69.4 41.6L 69.7 42.2L 70.1 42.8L 70.4 43.4L 70.7 44.0L 71.0 44.6L 71.2 45.3L 71.4 45.9L 71.6 46.6L 71.7 47.3L 71.9 47.9L 71.9 48.6L 72.0 49.3L 72.0 50.0 Z"/><text x="22" y="52" text-anchor="middle" font-size="4" font-family="system-ui" fill="#555">R3 Cross</text></g>
<g transform="translate(62,114)"><rect width="44" height="44" fill="#f8f8f8" stroke="#ddd"/><path transform="translate(22,22) scale(0.36) translate(-50,-50)" d="M 50.0 50.0L 50.7 50.8L 51.4 51.6L 52.1 52.4L 52.7 53.3L 53.4 54.1L 54.0 54.9L 54.7 55.7L 55.3 56.5L 55.9 57.3L 56.5 58.0L 57.0 58.8L 57.5 59.6L 58.0 60.3L 58.5 61.1L 58.9 61.8L 59.3 62.5L 59.6 63.2L 60.0 63.9L 60.2 64.6L 60.5 65.3L 60.7 65.9L 60.8 66.6L 60.9 67.2L 61.0 67.8L 61.0 68.4L 61.0 69.0L 60.9 69.5L 60.8 70.0L 60.7 70.5L 60.5 71.0L 60.2 71.5L 60.0 72.0L 59.6 72.4L 59.3 72.8L 58.9 73.2L 58.5 73.5L 58.0 73.9L 57.5 74.2L 57.0 74.5L 56.5 74.7L 55.9 75.0L 55.3 75.2L 54.7 75.4L 54.0 75.5L 53.4 75.7L 52.7 75.8L 52.1 75.9L 51.4 75.9L 50.7 76.0L 50.0 76.0L 49.3 76.0L 48.6 75.9L 47.9 75.9L 47.3 75.8L 46.6 75.7L 46.0 75.5L 45.3 75.4L 44.7 75.2L 44.1 75.0L 43.5 74.7L 43.0 74.5L 42.5 74.2L 42.0 73.9L 41.5 73.5L 41.1 73.2L 40.7 72.8L 40.4 72.4L 40.0 72.0L 39.8 71.5L 39.5 71.0L 39.3 70.5L 39.2 70.0L 39.1 69.5L 39.0 69.0L 39.0 68.4L 39.0 67.8L 39.1 67.2L 39.2 66.6L 39.3 65.9L 39.5 65.3L 39.8 64.6L 40.0 63.9L 40.4 63.2L 40.7 62.5L 41.1 61.8L 41.5 61.1L 42.0 60.3L 42.5 59.6L 43.0 58.8L 43.5 58.0L 44.1 57.3L 44.7 56.5L 45.3 55.7L 46.0 54.9L 46.6 54.1L 47.3 53.3L 47.9 52.4L 48.6 51.6L 49.3 50.8L 50.0 50.0L 50.7 49.2L 51.4 48.4L 52.1 47.6L 52.7 46.7L 53.4 45.9L 54.0 45.1L 54.7 44.3L 55.3 43.5L 55.9 42.7L 56.5 42.0L 57.0 41.2L 57.5 40.4L 58.0 39.7L 58.5 38.9L 58.9 38.2L 59.3 37.5L 59.6 36.8L 60.0 36.1L 60.2 35.4L 60.5 34.7L 60.7 34.1L 60.8 33.4L 60.9 32.8L 61.0 32.2L 61.0 31.6L 61.0 31.0L 60.9 30.5L 60.8 30.0L 60.7 29.5L 60.5 29.0L 60.2 28.5L 60.0 28.0L 59.6 27.6L 59.3 27.2L 58.9 26.8L 58.5 26.5L 58.0 26.1L 57.5 25.8L 57.0 25.5L 56.5 25.3L 55.9 25.0L 55.3 24.8L 54.7 24.6L 54.0 24.5L 53.4 24.3L 52.7 24.2L 52.1 24.1L 51.4 24.1L 50.7 24.0L 50.0 24.0L 49.3 24.0L 48.6 24.1L 47.9 24.1L 47.3 24.2L 46.6 24.3L 46.0 24.5L 45.3 24.6L 44.7 24.8L 44.1 25.0L 43.5 25.3L 43.0 25.5L 42.5 25.8L 42.0 26.1L 41.5 26.5L 41.1 26.8L 40.7 27.2L 40.4 27.6L 40.0 28.0L 39.8 28.5L 39.5 29.0L 39.3 29.5L 39.2 30.0L 39.1 30.5L 39.0 31.0L 39.0 31.6L 39.0 32.2L 39.1 32.8L 39.2 33.4L 39.3 34.1L 39.5 34.7L 39.8 35.4L 40.0 36.1L 40.4 36.8L 40.7 37.5L 41.1 38.2L 41.5 38.9L 42.0 39.7L 42.5 40.4L 43.0 41.2L 43.5 42.0L 44.1 42.7L 44.7 43.5L 45.3 44.3L 46.0 45.1L 46.6 45.9L 47.3 46.7L 47.9 47.6L 48.6 48.4L 49.3 49.2L 50.0 50.0 Z"/><text x="22" y="52" text-anchor="middle" font-size="4" font-family="system-ui" fill="#555">R3 Serpent</text></g>
<g transform="translate(114,114)"><rect width="44" height="44" fill="#f8f8f8" stroke="#ddd"/><path transform="translate(22,22) scale(0.36) translate(-50,-50)" d="M 66.5 50.0L 67.0 51.0L 67.3 52.0L 67.6 53.1L 67.8 54.1L 67.9 55.2L 67.9 56.3L 67.9 57.4L 67.7 58.4L 67.6 59.4L 67.3 60.4L 67.0 61.3L 66.6 62.1L 66.2 62.9L 65.8 63.6L 65.4 64.2L 64.9 64.8L 64.4 65.3L 63.9 65.7L 63.5 66.0L 63.0 66.2L 62.6 66.4L 62.1 66.5L 61.7 66.5L 61.3 66.5L 60.9 66.4L 60.6 66.3L 60.2 66.1L 59.9 65.9L 59.6 65.7L 59.3 65.4L 59.0 65.1L 58.7 64.8L 58.4 64.4L 58.1 64.1L 57.8 63.8L 57.5 63.4L 57.2 63.1L 56.9 62.7L 56.6 62.4L 56.3 62.1L 56.0 61.8L 55.6 61.5L 55.3 61.3L 55.0 61.1L 54.7 60.9L 54.4 60.7L 54.0 60.6L 53.7 60.5L 53.4 60.5L 53.0 60.6L 52.7 60.7L 52.4 60.9L 52.0 61.2L 51.6 61.5L 51.1 61.8L 50.6 62.1L 50.0 62.5L 49.4 62.8L 48.7 63.1L 48.0 63.5L 47.2 63.7L 46.3 64.0L 45.4 64.2L 44.4 64.3L 43.4 64.4L 42.4 64.4L 41.4 64.3L 40.3 64.1L 39.3 63.9L 38.2 63.6L 37.2 63.2L 36.2 62.7L 35.3 62.2L 34.4 61.6L 33.6 60.9L 32.8 60.3L 32.1 59.6L 31.5 58.8L 31.0 58.1L 30.6 57.4L 30.2 56.6L 29.9 55.9L 29.7 55.3L 29.5 54.6L 29.4 54.1L 29.4 53.5L 29.5 53.0L 29.6 52.5L 29.7 52.1L 29.9 51.8L 30.1 51.4L 30.4 51.2L 30.7 50.9L 31.0 50.7L 31.4 50.6L 31.8 50.4L 32.2 50.3L 32.6 50.2L 33.0 50.1L 33.5 50.0L 33.9 49.9L 34.4 49.8L 34.8 49.8L 35.2 49.7L 35.7 49.6L 36.1 49.5L 36.5 49.3L 36.9 49.2L 37.3 49.1L 37.7 48.9L 38.0 48.7L 38.3 48.6L 38.6 48.3L 38.9 48.1L 39.1 47.8L 39.2 47.6L 39.3 47.2L 39.4 46.9L 39.3 46.4L 39.3 46.0L 39.3 45.4L 39.2 44.9L 39.2 44.2L 39.2 43.5L 39.2 42.8L 39.3 42.0L 39.4 41.2L 39.6 40.4L 39.8 39.5L 40.1 38.6L 40.5 37.7L 41.0 36.8L 41.5 36.0L 42.1 35.1L 42.8 34.3L 43.6 33.5L 44.4 32.8L 45.3 32.1L 46.2 31.5L 47.1 31.0L 48.1 30.6L 49.1 30.2L 50.0 29.9L 51.0 29.7L 51.9 29.6L 52.8 29.5L 53.6 29.5L 54.4 29.5L 55.1 29.7L 55.8 29.8L 56.4 30.0L 56.9 30.3L 57.4 30.5L 57.8 30.8L 58.1 31.1L 58.4 31.5L 58.6 31.8L 58.7 32.2L 58.8 32.6L 58.9 32.9L 58.8 33.3L 58.8 33.7L 58.7 34.1L 58.6 34.5L 58.5 35.0L 58.4 35.4L 58.2 35.8L 58.1 36.2L 57.9 36.7L 57.8 37.1L 57.6 37.5L 57.5 38.0L 57.4 38.4L 57.3 38.8L 57.2 39.2L 57.1 39.6L 57.1 40.0L 57.1 40.4L 57.1 40.7L 57.2 41.1L 57.2 41.4L 57.4 41.7L 57.6 42.0L 57.8 42.2L 58.2 42.4L 58.6 42.6L 59.0 42.8L 59.5 43.1L 60.0 43.3L 60.6 43.6L 61.2 44.0L 61.8 44.4L 62.5 44.9L 63.1 45.4L 63.7 46.0L 64.4 46.7L 65.0 47.4L 65.5 48.2L 66.1 49.1L 66.5 50.0 Z"/><text x="22" y="52" text-anchor="middle" font-size="4" font-family="system-ui" fill="#555">R3 Spiral</text></g>
<g transform="translate(166,114)"><rect width="44" height="44" fill="#f8f8f8" stroke="#ddd"/><path transform="translate(22,22) scale(0.36) translate(-50,-50)" d="M 74.0 50.0L 74.0 50.8L 73.9 51.5L 73.7 52.2L 73.6 53.0L 73.3 53.7L 73.0 54.4L 72.7 55.1L 72.3 55.7L 71.8 56.3L 71.3 56.9L 70.8 57.5L 70.2 58.0L 69.5 58.4L 68.9 58.9L 68.1 59.2L 67.4 59.6L 66.6 59.8L 65.8 60.0L 64.9 60.1L 64.0 60.2L 63.1 60.2L 62.1 60.0L 61.1 59.8L 59.9 59.3L 58.1 58.1L 59.3 59.9L 59.8 61.1L 60.0 62.1L 60.2 63.1L 60.2 64.0L 60.1 64.9L 60.0 65.8L 59.8 66.6L 59.6 67.4L 59.2 68.1L 58.9 68.9L 58.4 69.5L 58.0 70.2L 57.5 70.8L 56.9 71.3L 56.3 71.8L 55.7 72.3L 55.1 72.7L 54.4 73.0L 53.7 73.3L 53.0 73.6L 52.2 73.7L 51.5 73.9L 50.8 74.0L 50.0 74.0L 49.2 74.0L 48.5 73.9L 47.8 73.7L 47.0 73.6L 46.3 73.3L 45.6 73.0L 44.9 72.7L 44.3 72.3L 43.7 71.8L 43.1 71.3L 42.5 70.8L 42.0 70.2L 41.6 69.5L 41.1 68.9L 40.8 68.1L 40.4 67.4L 40.2 66.6L 40.0 65.8L 39.9 64.9L 39.8 64.0L 39.8 63.1L 40.0 62.1L 40.2 61.1L 40.7 59.9L 41.9 58.1L 40.1 59.3L 38.9 59.8L 37.9 60.0L 36.9 60.2L 36.0 60.2L 35.1 60.1L 34.2 60.0L 33.4 59.8L 32.6 59.6L 31.9 59.2L 31.1 58.9L 30.5 58.4L 29.8 58.0L 29.2 57.5L 28.7 56.9L 28.2 56.3L 27.7 55.7L 27.3 55.1L 27.0 54.4L 26.7 53.7L 26.4 53.0L 26.3 52.2L 26.1 51.5L 26.0 50.8L 26.0 50.0L 26.0 49.2L 26.1 48.5L 26.3 47.8L 26.4 47.0L 26.7 46.3L 27.0 45.6L 27.3 44.9L 27.7 44.3L 28.2 43.7L 28.7 43.1L 29.2 42.5L 29.8 42.0L 30.5 41.6L 31.1 41.1L 31.9 40.8L 32.6 40.4L 33.4 40.2L 34.2 40.0L 35.1 39.9L 36.0 39.8L 36.9 39.8L 37.9 40.0L 38.9 40.2L 40.1 40.7L 41.9 41.9L 40.7 40.1L 40.2 38.9L 40.0 37.9L 39.8 36.9L 39.8 36.0L 39.9 35.1L 40.0 34.2L 40.2 33.4L 40.4 32.6L 40.8 31.9L 41.1 31.1L 41.6 30.5L 42.0 29.8L 42.5 29.2L 43.1 28.7L 43.7 28.2L 44.3 27.7L 44.9 27.3L 45.6 27.0L 46.3 26.7L 47.0 26.4L 47.8 26.3L 48.5 26.1L 49.2 26.0L 50.0 26.0L 50.8 26.0L 51.5 26.1L 52.2 26.3L 53.0 26.4L 53.7 26.7L 54.4 27.0L 55.1 27.3L 55.7 27.7L 56.3 28.2L 56.9 28.7L 57.5 29.2L 58.0 29.8L 58.4 30.5L 58.9 31.1L 59.2 31.9L 59.6 32.6L 59.8 33.4L 60.0 34.2L 60.1 35.1L 60.2 36.0L 60.2 36.9L 60.0 37.9L 59.8 38.9L 59.3 40.1L 58.1 41.9L 59.9 40.7L 61.1 40.2L 62.1 40.0L 63.1 39.8L 64.0 39.8L 64.9 39.9L 65.8 40.0L 66.6 40.2L 67.4 40.4L 68.1 40.8L 68.9 41.1L 69.5 41.6L 70.2 42.0L 70.8 42.5L 71.3 43.1L 71.8 43.7L 72.3 44.3L 72.7 44.9L 73.0 45.6L 73.3 46.3L 73.6 47.0L 73.7 47.8L 73.9 48.5L 74.0 49.2L 74.0 50.0 Z"/><text x="22" y="52" text-anchor="middle" font-size="4" font-family="system-ui" fill="#555">R3 Petals</text></g>
<g transform="translate(10,166)"><rect width="44" height="44" fill="#f8f8f8" stroke="#ddd"/><path transform="translate(22,22) scale(0.36) translate(-50,-50)" d="M 50.0 50.0L 50.8 50.8L 51.5 51.5L 52.2 52.3L 53.0 53.0L 53.7 53.8L 54.4 54.5L 55.1 55.2L 55.8 56.0L 56.4 56.7L 57.1 57.4L 57.6 58.1L 58.2 58.8L 58.7 59.5L 59.2 60.2L 59.7 60.9L 60.1 61.6L 60.5 62.2L 60.9 62.9L 61.2 63.5L 61.4 64.1L 61.6 64.7L 61.8 65.3L 61.9 65.9L 62.0 66.4L 62.0 67.0L 62.0 67.5L 61.9 68.0L 61.8 68.5L 61.6 69.0L 61.4 69.4L 61.2 69.8L 60.9 70.3L 60.5 70.7L 60.1 71.0L 59.7 71.4L 59.2 71.7L 58.7 72.0L 58.2 72.3L 57.6 72.6L 57.1 72.8L 56.4 73.0L 55.8 73.2L 55.1 73.4L 54.4 73.6L 53.7 73.7L 53.0 73.8L 52.2 73.9L 51.5 74.0L 50.8 74.0L 50.0 74.0L 49.2 74.0L 48.5 74.0L 47.8 73.9L 47.0 73.8L 46.3 73.7L 45.6 73.6L 44.9 73.4L 44.2 73.2L 43.6 73.0L 42.9 72.8L 42.4 72.6L 41.8 72.3L 41.3 72.0L 40.8 71.7L 40.3 71.4L 39.9 71.0L 39.5 70.7L 39.1 70.3L 38.8 69.8L 38.6 69.4L 38.4 69.0L 38.2 68.5L 38.1 68.0L 38.0 67.5L 38.0 67.0L 38.0 66.4L 38.1 65.9L 38.2 65.3L 38.4 64.7L 38.6 64.1L 38.8 63.5L 39.1 62.9L 39.5 62.2L 39.9 61.6L 40.3 60.9L 40.8 60.2L 41.3 59.5L 41.8 58.8L 42.4 58.1L 42.9 57.4L 43.6 56.7L 44.2 56.0L 44.9 55.2L 45.6 54.5L 46.3 53.8L 47.0 53.0L 47.8 52.3L 48.5 51.5L 49.2 50.8L 50.0 50.0L 50.8 49.2L 51.5 48.5L 52.2 47.7L 53.0 47.0L 53.7 46.2L 54.4 45.5L 55.1 44.8L 55.8 44.0L 56.4 43.3L 57.1 42.6L 57.6 41.9L 58.2 41.2L 58.7 40.5L 59.2 39.8L 59.7 39.1L 60.1 38.4L 60.5 37.8L 60.9 37.1L 61.2 36.5L 61.4 35.9L 61.6 35.3L 61.8 34.7L 61.9 34.1L 62.0 33.6L 62.0 33.0L 62.0 32.5L 61.9 32.0L 61.8 31.5L 61.6 31.0L 61.4 30.6L 61.2 30.2L 60.9 29.7L 60.5 29.3L 60.1 29.0L 59.7 28.6L 59.2 28.3L 58.7 28.0L 58.2 27.7L 57.6 27.4L 57.1 27.2L 56.4 27.0L 55.8 26.8L 55.1 26.6L 54.4 26.4L 53.7 26.3L 53.0 26.2L 52.2 26.1L 51.5 26.0L 50.8 26.0L 50.0 26.0L 49.2 26.0L 48.5 26.0L 47.8 26.1L 47.0 26.2L 46.3 26.3L 45.6 26.4L 44.9 26.6L 44.2 26.8L 43.6 27.0L 42.9 27.2L 42.4 27.4L 41.8 27.7L 41.3 28.0L 40.8 28.3L 40.3 28.6L 39.9 29.0L 39.5 29.3L 39.1 29.7L 38.8 30.2L 38.6 30.6L 38.4 31.0L 38.2 31.5L 38.1 32.0L 38.0 32.5L 38.0 33.0L 38.0 33.6L 38.1 34.1L 38.2 34.7L 38.4 35.3L 38.6 35.9L 38.8 36.5L 39.1 37.1L 39.5 37.8L 39.9 38.4L 40.3 39.1L 40.8 39.8L 41.3 40.5L 41.8 41.2L 42.4 41.9L 42.9 42.6L 43.6 43.3L 44.2 44.0L 44.9 44.8L 45.6 45.5L 46.3 46.2L 47.0 47.0L 47.8 47.7L 48.5 48.5L 49.2 49.2L 50.0 50.0 Z"/><text x="22" y="52" text-anchor="middle" font-size="4" font-family="system-ui" fill="#555">R4 Chain</text></g>
<g transform="translate(62,166)"><rect width="44" height="44" fill="#f8f8f8" stroke="#ddd"/><path transform="translate(22,22) scale(0.36) translate(-50,-50)" d="M 50.0 39.8L 51.8 39.8L 53.5 40.0L 55.3 40.1L 57.0 40.4L 58.7 40.7L 60.4 41.1L 62.1 41.6L 63.7 42.2L 65.2 42.8L 66.8 43.5L 68.2 44.2L 69.6 45.0L 70.9 45.8L 72.2 46.7L 73.4 47.6L 74.5 48.6L 75.6 49.6L 76.5 50.7L 77.4 51.8L 78.2 52.8L 78.9 54.0L 79.5 55.1L 80.0 56.2L 80.4 57.4L 80.7 58.5L 80.9 59.6L 81.0 60.7L 81.1 61.8L 81.0 62.9L 80.8 63.9L 80.6 64.9L 80.2 65.9L 79.8 66.8L 79.3 67.7L 78.7 68.5L 78.0 69.3L 77.2 70.0L 76.4 70.6L 75.4 71.2L 74.5 71.7L 73.4 72.1L 72.3 72.4L 71.2 72.7L 70.0 72.9L 68.7 73.0L 67.4 73.0L 66.1 72.9L 64.8 72.8L 63.4 72.5L 62.0 72.2L 60.6 71.8L 59.2 71.3L 57.8 70.7L 56.4 70.0L 55.0 69.2L 53.6 68.4L 52.3 67.5L 50.9 66.5L 49.6 65.4L 48.4 64.3L 47.1 63.0L 46.0 61.8L 44.8 60.4L 43.8 59.0L 42.7 57.6L 41.8 56.1L 40.9 54.6L 40.0 53.0L 39.3 51.4L 38.6 49.8L 38.0 48.2L 37.4 46.5L 37.0 44.8L 36.6 43.2L 36.3 41.5L 36.1 39.9L 35.9 38.2L 35.8 36.6L 35.9 35.0L 35.9 33.4L 36.1 31.9L 36.3 30.4L 36.7 29.0L 37.0 27.6L 37.5 26.3L 38.0 25.0L 38.6 23.8L 39.2 22.7L 39.9 21.6L 40.7 20.6L 41.5 19.7L 42.3 18.9L 43.2 18.2L 44.1 17.6L 45.0 17.0L 46.0 16.6L 47.0 16.2L 48.0 16.0L 49.0 15.8L 50.0 15.8L 51.0 15.8L 52.0 16.0L 53.0 16.2L 54.0 16.6L 55.0 17.0L 55.9 17.6L 56.8 18.2L 57.7 18.9L 58.5 19.7L 59.3 20.6L 60.1 21.6L 60.8 22.7L 61.4 23.8L 62.0 25.0L 62.5 26.3L 63.0 27.6L 63.3 29.0L 63.7 30.4L 63.9 31.9L 64.1 33.4L 64.1 35.0L 64.2 36.6L 64.1 38.2L 63.9 39.9L 63.7 41.5L 63.4 43.2L 63.0 44.8L 62.6 46.5L 62.0 48.2L 61.4 49.8L 60.7 51.4L 60.0 53.0L 59.1 54.6L 58.2 56.1L 57.3 57.6L 56.2 59.0L 55.2 60.4L 54.0 61.8L 52.9 63.0L 51.6 64.3L 50.4 65.4L 49.1 66.5L 47.7 67.5L 46.4 68.4L 45.0 69.2L 43.6 70.0L 42.2 70.7L 40.8 71.3L 39.4 71.8L 38.0 72.2L 36.6 72.5L 35.2 72.8L 33.9 72.9L 32.6 73.0L 31.3 73.0L 30.0 72.9L 28.8 72.7L 27.7 72.4L 26.6 72.1L 25.5 71.7L 24.6 71.2L 23.6 70.6L 22.8 70.0L 22.0 69.3L 21.3 68.5L 20.7 67.7L 20.2 66.8L 19.8 65.9L 19.4 64.9L 19.2 63.9L 19.0 62.9L 18.9 61.8L 19.0 60.7L 19.1 59.6L 19.3 58.5L 19.6 57.4L 20.0 56.2L 20.5 55.1L 21.1 54.0L 21.8 52.8L 22.6 51.8L 23.5 50.7L 24.4 49.6L 25.5 48.6L 26.6 47.6L 27.8 46.7L 29.1 45.8L 30.4 45.0L 31.8 44.2L 33.2 43.5L 34.8 42.8L 36.3 42.2L 37.9 41.6L 39.6 41.1L 41.3 40.7L 43.0 40.4L 44.7 40.1L 46.5 40.0L 48.2 39.8L 50.0 39.8 Z"/><text x="22" y="52" text-anchor="middle" font-size="4" font-family="system-ui" fill="#555">R4 Trinity</text></g>
<g transform="translate(114,166)"><rect width="44" height="44" fill="#f8f8f8" stroke="#ddd"/><path transform="translate(22,22) scale(0.36) translate(-50,-50)" d="M 73.0 50.0L 72.9 50.7L 72.5 51.4L 71.8 52.1L 70.9 52.6L 69.8 53.1L 68.5 53.5L 67.1 53.8L 65.5 54.0L 63.9 54.0L 62.2 54.0L 60.6 53.8L 59.1 53.6L 57.6 53.3L 56.3 53.0L 55.1 52.6L 54.1 52.3L 53.3 52.0L 52.7 51.7L 52.4 51.6L 52.2 51.6L 52.3 51.8L 52.5 52.1L 52.9 52.6L 53.4 53.2L 54.0 54.0L 54.7 55.1L 55.5 56.2L 56.2 57.5L 56.9 58.9L 57.6 60.4L 58.1 62.0L 58.6 63.5L 58.9 65.0L 59.1 66.5L 59.1 67.9L 59.0 69.1L 58.7 70.1L 58.3 70.9L 57.7 71.5L 57.1 71.9L 56.4 72.0L 55.6 71.8L 54.8 71.4L 53.9 70.7L 53.1 69.8L 52.4 68.7L 51.6 67.4L 51.0 66.0L 50.5 64.5L 50.0 62.9L 49.6 61.3L 49.4 59.7L 49.2 58.2L 49.1 56.9L 49.1 55.7L 49.1 54.6L 49.2 53.8L 49.2 53.2L 49.2 52.8L 49.1 52.6L 49.0 52.7L 48.8 53.0L 48.5 53.5L 48.0 54.2L 47.4 55.1L 46.7 56.1L 45.8 57.1L 44.8 58.2L 43.7 59.3L 42.4 60.4L 41.1 61.4L 39.8 62.3L 38.4 63.1L 37.1 63.7L 35.8 64.2L 34.6 64.4L 33.6 64.5L 32.7 64.3L 31.9 64.0L 31.4 63.5L 31.1 62.9L 31.0 62.1L 31.2 61.1L 31.5 60.1L 32.1 59.1L 33.0 58.0L 34.0 56.9L 35.1 55.9L 36.4 54.9L 37.8 54.0L 39.2 53.2L 40.6 52.4L 41.9 51.8L 43.2 51.3L 44.3 50.9L 45.3 50.6L 46.2 50.4L 46.8 50.2L 47.1 50.1L 47.2 50.0L 47.1 49.9L 46.8 49.8L 46.2 49.6L 45.3 49.4L 44.3 49.1L 43.2 48.7L 41.9 48.2L 40.6 47.6L 39.2 46.8L 37.8 46.0L 36.4 45.1L 35.1 44.1L 34.0 43.1L 33.0 42.0L 32.1 40.9L 31.5 39.9L 31.2 38.9L 31.0 37.9L 31.1 37.1L 31.4 36.5L 31.9 36.0L 32.7 35.7L 33.6 35.5L 34.6 35.6L 35.8 35.8L 37.1 36.3L 38.4 36.9L 39.8 37.7L 41.1 38.6L 42.4 39.6L 43.7 40.7L 44.8 41.8L 45.8 42.9L 46.7 43.9L 47.4 44.9L 48.0 45.8L 48.5 46.5L 48.8 47.0L 49.0 47.3L 49.1 47.4L 49.2 47.2L 49.2 46.8L 49.2 46.2L 49.1 45.4L 49.1 44.3L 49.1 43.1L 49.2 41.8L 49.4 40.3L 49.6 38.7L 50.0 37.1L 50.5 35.5L 51.0 34.0L 51.6 32.6L 52.4 31.3L 53.1 30.2L 53.9 29.3L 54.8 28.6L 55.6 28.2L 56.4 28.0L 57.1 28.1L 57.7 28.5L 58.3 29.1L 58.7 29.9L 59.0 30.9L 59.1 32.1L 59.1 33.5L 58.9 35.0L 58.6 36.5L 58.1 38.0L 57.6 39.6L 56.9 41.1L 56.2 42.5L 55.5 43.8L 54.7 44.9L 54.0 46.0L 53.4 46.8L 52.9 47.4L 52.5 47.9L 52.3 48.2L 52.2 48.4L 52.4 48.4L 52.7 48.3L 53.3 48.0L 54.1 47.7L 55.1 47.4L 56.3 47.0L 57.6 46.7L 59.1 46.4L 60.6 46.2L 62.2 46.0L 63.9 46.0L 65.5 46.0L 67.1 46.2L 68.5 46.5L 69.8 46.9L 70.9 47.4L 71.8 47.9L 72.5 48.6L 72.9 49.3L 73.0 50.0 Z"/><text x="22" y="52" text-anchor="middle" font-size="4" font-family="system-ui" fill="#555">R4 Five-Fold</text></g>
<g transform="translate(166,166)"><rect width="44" height="44" fill="#f8f8f8" stroke="#ddd"/><path transform="translate(22,22) scale(0.36) translate(-50,-50)" d="M 50.0 38.0L 51.4 38.6L 52.7 39.3L 54.1 40.1L 55.4 40.8L 56.6 41.6L 57.8 42.4L 58.9 43.3L 60.0 44.2L 60.9 45.0L 61.8 45.9L 62.6 46.8L 63.2 47.7L 63.8 48.6L 64.2 49.5L 64.6 50.3L 64.9 51.2L 65.0 52.0L 65.1 52.8L 65.2 53.6L 65.1 54.3L 65.0 55.0L 64.8 55.6L 64.6 56.2L 64.4 56.7L 64.1 57.2L 63.9 57.6L 63.6 57.9L 63.3 58.2L 63.0 58.5L 62.8 58.6L 62.6 58.7L 62.4 58.7L 62.2 58.7L 62.0 58.6L 61.9 58.4L 61.8 58.2L 61.7 57.9L 61.7 57.5L 61.7 57.1L 61.7 56.6L 61.7 56.1L 61.7 55.6L 61.8 55.0L 61.8 54.3L 61.9 53.7L 61.9 53.0L 61.9 52.2L 62.0 51.5L 62.0 50.8L 62.0 50.0L 62.0 49.2L 62.0 48.5L 61.9 47.8L 61.9 47.0L 61.9 46.3L 61.8 45.7L 61.8 45.0L 61.7 44.4L 61.7 43.9L 61.7 43.4L 61.7 42.9L 61.7 42.5L 61.7 42.1L 61.8 41.8L 61.9 41.6L 62.0 41.4L 62.2 41.3L 62.4 41.3L 62.6 41.3L 62.8 41.4L 63.0 41.5L 63.3 41.8L 63.6 42.1L 63.9 42.4L 64.1 42.8L 64.4 43.3L 64.6 43.8L 64.8 44.4L 65.0 45.0L 65.1 45.7L 65.2 46.4L 65.1 47.2L 65.0 48.0L 64.9 48.8L 64.6 49.7L 64.2 50.5L 63.8 51.4L 63.2 52.3L 62.6 53.2L 61.8 54.1L 60.9 55.0L 60.0 55.8L 58.9 56.7L 57.8 57.6L 56.6 58.4L 55.4 59.2L 54.1 59.9L 52.7 60.7L 51.4 61.4L 50.0 62.0L 48.6 62.6L 47.3 63.2L 45.9 63.7L 44.6 64.1L 43.4 64.6L 42.2 64.9L 41.1 65.2L 40.0 65.5L 39.1 65.7L 38.2 65.8L 37.4 65.9L 36.8 66.0L 36.2 66.0L 35.8 65.9L 35.4 65.8L 35.1 65.7L 35.0 65.5L 34.9 65.3L 34.8 65.0L 34.9 64.7L 35.0 64.4L 35.2 64.1L 35.4 63.7L 35.6 63.3L 35.9 62.8L 36.1 62.4L 36.4 61.9L 36.7 61.4L 37.0 60.9L 37.2 60.4L 37.4 59.9L 37.6 59.4L 37.8 58.8L 38.0 58.3L 38.1 57.8L 38.2 57.2L 38.3 56.7L 38.3 56.2L 38.3 55.6L 38.3 55.1L 38.3 54.6L 38.3 54.1L 38.2 53.6L 38.2 53.0L 38.1 52.5L 38.1 52.0L 38.1 51.5L 38.0 51.0L 38.0 50.5L 38.0 50.0L 38.0 49.5L 38.0 49.0L 38.1 48.5L 38.1 48.0L 38.1 47.5L 38.2 47.0L 38.2 46.4L 38.3 45.9L 38.3 45.4L 38.3 44.9L 38.3 44.4L 38.3 43.8L 38.3 43.3L 38.2 42.8L 38.1 42.2L 38.0 41.7L 37.8 41.2L 37.6 40.6L 37.4 40.1L 37.2 39.6L 37.0 39.1L 36.7 38.6L 36.4 38.1L 36.1 37.6L 35.9 37.2L 35.6 36.7L 35.4 36.3L 35.2 35.9L 35.0 35.6L 34.9 35.3L 34.8 35.0L 34.9 34.7L 35.0 34.5L 35.1 34.3L 35.4 34.2L 35.8 34.1L 36.2 34.0L 36.8 34.0L 37.4 34.1L 38.2 34.2L 39.1 34.3L 40.0 34.5L 41.1 34.8L 42.2 35.1L 43.4 35.4L 44.6 35.9L 45.9 36.3L 47.3 36.8L 48.6 37.4L 50.0 38.0 Z"/><text x="22" y="52" text-anchor="middle" font-size="4" font-family="system-ui" fill="#555">R4 Serpent</text></g>
</svg>
